<svg xmlns="http://www.w3.org/2000/svg" viewBox="0 0 510 261.1"><defs><style>.cls-1{fill:#ffe194;}.cls-2{fill:#f9b225;}</style></defs><title>fondo_Seccionprueba</title><g id="Capa_2" data-name="Capa 2"><g id="Capa_2-2" data-name="Capa 2"><path class="cls-1" d="M0,25.13v-18s104.88-19.75,264.56,6.54C425.8,40.19,510,17.21,510,17.21V34.33L0,32.83Z"/><circle class="cls-2" cx="236.34" cy="241.58" r="5.18"/><circle class="cls-2" cx="274.05" cy="241.58" r="5.18"/><ellipse class="cls-2" cx="263.7" cy="253.93" rx="6.51" ry="7.17"/><ellipse class="cls-2" cx="248.29" cy="253.93" rx="6.51" ry="7.17"/><path class="cls-2" d="M255.33,196a21.64,21.64,0,0,0-20.63,16H220.8c11.95,0,13,7.71,13,7.71l0-.07c.66,11.72,10,21,21.48,21s20.83-9.31,21.48-21l0,.09S278,212,289.93,212H276A21.65,21.65,0,0,0,255.33,196Z"/><path class="cls-2" d="M0,27.21V23.78S95.36-5.48,284.48,19.51c141,17.45,225.52,6,225.52,6V212H0Z"/></g></g></svg>