<svg xmlns="http://www.w3.org/2000/svg" viewBox="0 0 1920 1420"><defs><style>.cls-1{fill:#ffe194;}.cls-2{fill:#f9b225;}</style></defs><title>fondo_seccion3</title><g id="Capa_2" data-name="Capa 2"><g id="Capa_2-2" data-name="Capa 2"><path class="cls-1" d="M0,146.85V41.58S394.83-73.79,996,79.81c607,155.08,924,20.75,924,20.75v100.1L0,191.87Z"/><circle class="cls-2" cx="893.5" cy="1346.5" r="19.5"/><circle class="cls-2" cx="1035.5" cy="1346.5" r="19.5"/><ellipse class="cls-2" cx="996.5" cy="1393" rx="24.5" ry="27"/><ellipse class="cls-2" cx="938.5" cy="1393" rx="24.5" ry="27"/><path class="cls-2" d="M965,1181a81,81,0,0,0-77.67,58H835c45,0,49,28,49,28l.15-.25a81,81,0,0,0,161.71-.08l.14.33s4.26-28,49.26-28h-52.59A81,81,0,0,0,965,1181Z"/><path class="cls-2" d="M0,159V139S359-32,1071,114c531,102,849,35,849,35V1239H0Z"/></g></g></svg>