<svg xmlns="http://www.w3.org/2000/svg" viewBox="0 0 722.73 493.34"><defs><style>.cls-1{fill:#f2f2f2;}.cls-2{fill:#a0616a;}.cls-3{fill:#c83e4d;}.cls-4{fill:#2f2e41;}.cls-5{fill:#ffb6b6;}.cls-6{fill:#e6e6e6;}.cls-7{fill:#3f3d3b;}.cls-8{fill:#3f3d56;}.cls-9{fill:#d11149;}.cls-10{fill:#6c63ff;}.cls-11{fill:#f9b225;}.cls-12{fill:#ffe194;}.cls-13{fill:#fff;}</style></defs><title>icono_adopta_2</title><g id="Capa_2" data-name="Capa 2"><g id="Capa_1-2" data-name="Capa 1"><path class="cls-1" d="M231.11,473.2a2.81,2.81,0,0,1-2-4.87l.19-.76c0-.06-.05-.12-.08-.19a7.53,7.53,0,0,0-13.9.06c-2.28,5.47-5.17,11-5.89,16.75a22.47,22.47,0,0,0,.39,7.67,89.43,89.43,0,0,1-8.13-37.13,85.94,85.94,0,0,1,.54-9.63c.29-2.62.7-5.23,1.23-7.81A90.48,90.48,0,0,1,221.36,399a24.08,24.08,0,0,0,10-10.38,19,19,0,0,0,1.67-5c-.49.06-1.84-7.36-1.47-7.82-.68-1-1.9-1.54-2.64-2.54-3.69-5-8.77-4.13-11.43,2.66-5.67,2.87-5.72,7.61-2.24,12.17,2.21,2.91,2.51,6.84,4.46,9.94-.2.26-.41.51-.61.76a90.69,90.69,0,0,0-9.5,15.06,37.88,37.88,0,0,0-2.26-17.58c-2.17-5.22-6.22-9.61-9.79-14.12-4.29-5.42-13.08-3.06-13.83,3.81l0,.2c.53.3,1,.62,1.56,1a3.81,3.81,0,0,1-1.53,6.93h-.08a37.38,37.38,0,0,0,1,5.67c-4.58,17.71,5.3,24.16,19.42,24.45l.93.47a93,93,0,0,0-5,23.54,86.68,86.68,0,0,0,.06,14.23l0-.17a23.36,23.36,0,0,0-8-13.44c-6.12-5-14.77-6.88-21.37-10.92a4.37,4.37,0,0,0-6.69,4.25l0,.18a25.08,25.08,0,0,1,2.86,1.38c.53.3,1,.62,1.56.95A3.81,3.81,0,0,1,167,451.5h-.08l-.16,0a38,38,0,0,0,7,10.92c2.87,15.46,15.17,16.93,28.32,12.43h0a92.37,92.37,0,0,0,6.24,18.21h22.29c.08-.24.15-.5.23-.75a25,25,0,0,1-6.17-.37l5-6.1.1-.12,2.53-3.11h0a37.16,37.16,0,0,0-1.09-9.45Z"/><polygon class="cls-2" points="59.64 439.48 65.79 445.98 94.35 424.82 85.28 415.23 59.64 439.48"/><path class="cls-3" d="M69.72,443.08l-7-6.54-1.71-1.61L43.32,449.11,47.93,454l5.43-3.48-2.49,6.58L63.09,470A4,4,0,0,0,70,466.65l-2.64-17.07,4.65-4.4Z"/><path class="cls-4" d="M194.82,202.78l-1.95,21.29s-3.4,16-1,14.74-1.87,4.55-.76,9.63-9.51,42.91-4.7,39-2.78,23.16-7.58,36.52c-1.47,4.13-3,8.31-4.5,12.46-.3.84-.6,1.67-.91,2.51-2,5.4-3.94,10.72-5.83,15.74-.27.7-.53,1.4-.79,2.09,0,0,0,0,0,0-6.22,16.37-11.55,29.25-13.68,31.38-1.11,1.11-18.72,13.83-36.47,26.57C98,428.11,79.18,441.51,79.18,441.51l-17.54-18.4,1.21-.36c1.46-.42,4.16-1.21,7.7-2.26,14.76-4.35-4-11.12,9.41-16,3.78-1.36,6.3-2.42,6.87-3,3.33-3.25,7.8-11,9.91-7.75s11.68-20.9,14.44-23.29c1.48-1.29,6.31-7.32,10.45-12.62,3.56-4.56,6.62-8.59,6.62-8.59s.06-2.16.15-5.6c.13-5.09.32-13,.52-20.92,0,0,0,0,0,0,.07-3,.14-6,.21-8.79.05-2.19.1-4.3.15-6.25.13-5.84.22-10.26.22-11.36,0-3.61,0-.8,2.85-3a12.43,12.43,0,0,0,1.21-1.08,14.19,14.19,0,0,0,1.68-1.79c.21-.45-1.1.16-2.8-.18a5,5,0,0,1-2.46-1.26c-3.58-3.22.28-13.12.28-13.12-8.14-16.28-7.55-29.63-3.74-39.92a51.23,51.23,0,0,1,13.21-19.35A48.15,48.15,0,0,1,147,211l.25-1.35L150,194.78a33.82,33.82,0,0,1,4.55-2.07,31.68,31.68,0,0,1,15.26-1.52,45.52,45.52,0,0,1,14.61,4.73A54.08,54.08,0,0,1,194.82,202.78Z"/><polygon class="cls-2" points="118.02 472.65 126.93 473.48 134.44 438.74 121.29 437.51 118.02 472.65"/><path class="cls-3" d="M143.68,486.27l-13.24-11.09.6-6.38-3.08-.1-9.54-.31h0l-2.34-.08-4,22.34,6.69.62,1.77-6.2,2.47,6.6,3.54.33,14.17,1.32.37,0a4,4,0,0,0,3-1.34,3.86,3.86,0,0,0,1-2.3A4,4,0,0,0,143.68,486.27Z"/><path class="cls-4" d="M167.55,354.66c-3.39,18.45-17.74,61.71-26.42,87-3.95,11.57-6.71,19.4-6.71,19.4l-4.5-1.42h0l-7.61-2.4-2.77-.88h0l-3.36-1.07s.39-20.66.43-40.58c0-8.35,0-16.58-.17-23.1-.18-7.11-.49-12.2-1-13.21-2.11-4.14,1.42-4.58,5.15-5.62s.82-2.63-.63-6c-1-2.24,1-5.23,2.32-6.93a17.67,17.67,0,0,1,1.21-1.37l-1.84-.63c3.56-4.56,6.62-8.59,6.62-8.59s.06-2.16.15-5.6c.13-5.09.32-13,.52-20.92,0,0,0,0,0,0,.07-3,.14-6,.21-8.79,5.72,4.39,11.28,8.69,16.32,12.67,0,0,0,0,0,0,12.11,9.57,21.2,17.25,22.48,19.69C168.53,347.48,168.33,350.42,167.55,354.66Z"/><path class="cls-5" d="M465.68,28.89a6.43,6.43,0,0,1,7,5.63,5.79,5.79,0,0,1,0,1l20.63,8.8-.79,12L465.57,41.26a6.41,6.41,0,0,1-5.48-5.58,6.13,6.13,0,0,1,5.42-6.77h0Z"/><path class="cls-6" d="M606,103.19a18.83,18.83,0,0,0-2.79-6.53A17,17,0,0,0,602,95c-1.62-1.93-3.13-3.7-4.53-5.28-.85-1-1.68-1.91-2.46-2.76-4.53-5-7.5-7.6-8.86-7.82-.66-.11-1.31-.19-1.94-.27-3.23-.4-5.57-.69-5.64-4.1a10.14,10.14,0,0,1,.1-1.46,19.77,19.77,0,0,1,.53-2.4,9.22,9.22,0,0,0,.31-1.36c.1-.59.06-1-.26-1.3s-1.07-.28-2.33.22l-.67.28-.25.11-.52.24c-1.51.72-3.84.81-6.5.54-7.85-.8-18.47-4.76-18.6-4.81l-66.88-26-.62,1-1.47,2.38-.51.82-.58.94-2.53,4.08-1.28,2.06,21.6,16.29,2.35,1.77,2,1.53,41.24,31.11L559.08,111l3.43,2.26,14.62,9.64a18.86,18.86,0,0,0,26.13-5.34,4.94,4.94,0,0,0,.27-.42A18.87,18.87,0,0,0,606,103.19Z"/><path class="cls-6" d="M721.73,493H1a1,1,0,0,1,0-2H721.73a1,1,0,0,1,0,2Z"/><polygon class="cls-5" points="144.91 166.79 146.79 184.17 145.69 206.97 196.17 200.97 200.91 166.79 194.87 166.85 144.91 166.79"/><path class="cls-2" d="M104.91,238.21a9.16,9.16,0,0,1,1.42-12.87,8.81,8.81,0,0,1,1.35-.9l23.9-80.2,14.94,7.52-26,76.87a9.21,9.21,0,0,1-15.58,9.58Z"/><path class="cls-4" d="M147.52,103.81s-4.27-2.27-7.2,7.55c-2.34,7.87-21.32,54.72-21.56,66.1a7.22,7.22,0,0,0-5.7,6.74l23.47,3.14c4.1-3.46,5.18-8.13,3.59-9.51l5.1-13.92,21.26-44.28-15.85-14.24Z"/><path class="cls-2" d="M272.92,211.84a9.16,9.16,0,0,0-6.85-11,8.56,8.56,0,0,0-1.6-.22L209.65,138,198,151.89,254.73,210a9.21,9.21,0,0,0,18.19,1.89Z"/><path class="cls-4" d="M176.38,109.08s2.87-3.89,9.76,3.71c5.51,6.08,42.88,40.11,48,50.27a7.19,7.19,0,0,1,8,3.61l-19.8,13c-5.19-1.35-8.18-5.1-7.35-7l-10.61-10.35-38.32-30.73,8.13-19.69Z"/><circle class="cls-7" cx="380.83" cy="141" r="140"/><path class="cls-8" d="M502.46,69.75a142.12,142.12,0,0,0-21.07-27.49c-1.81-1.84-3.68-3.64-5.59-5.39q-1.59-1.45-3.22-2.85c-2.07-1.78-4.2-3.5-6.37-5.16A140.3,140.3,0,0,0,380.82,0c-77.74,0-141,63.25-141,141a141.38,141.38,0,0,0,2.33,25.56c0,.05,0,.09,0,.14.71,3.87,1.59,7.69,2.61,11.44a141,141,0,0,0,255.75,37.31q2.93-4.71,5.5-9.66A140.8,140.8,0,0,0,502.46,69.75ZM380.82,280a139,139,0,0,1-139-138.9V141c0-76.65,62.36-139,139-139A138.92,138.92,0,0,1,480.3,44a141.48,141.48,0,0,1,17.79,22.43,138.91,138.91,0,0,1,16.2,113.41c-1.23,4.24-2.67,8.39-4.29,12.46s-3.44,8.08-5.44,12A139.48,139.48,0,0,1,380.82,280Z"/><polygon class="cls-5" points="572.64 472.97 563.45 472.89 559.38 436.61 572.94 436.73 572.64 472.97"/><path class="cls-4" d="M575.07,468.73l-2.4-.16-9.79-.67-3.15-.21-.06,6.57-14.68,10a4.11,4.11,0,0,0,2.28,7.51l18.27.15,3.2-6.48,1.17,6.52,6.9.06Z"/><polygon class="cls-5" points="669.41 466.25 660.62 468.95 645.79 435.6 658.76 431.61 669.41 466.25"/><path class="cls-4" d="M670.45,461.48l-2.34.57-9.53,2.31-3.07.75,1.93,6.29-11,13.92a4.12,4.12,0,0,0,.7,5.78,4.07,4.07,0,0,0,2.53.88,4,4,0,0,0,1.2-.18l17.47-5.37,1.09-7.15,3.09,5.86,6.59-2Z"/><path class="cls-4" d="M554.15,167.92l-17.54,51L536,223c-4.42,4.2,1.13,5.58-.95,6.68s-3.48,4.21-.68,4.77,11.85,199.37,23.78,207.09,19.2,13.3,17,2c-.88-4.55.37-29,2.18-56.51.2-3.12,3.43-6.42.63-9.46s.34-5,.52-7.54c2.52-36,5.42-71.46,5.42-71.46s18.6,63.86,23.43,58.91,2.91,7.23,4.39,10.87c1.23,3-4,9,3.7,9.1s25.89,62.16,27.73,62.09c3.65-.14,13.91.25,20-1,3-.62-10.34-47.61-21.49-88.19-.89-3.24-5.73-3.31-2.62-9.56s-12.37-46.68-11-48.55c3.52-5,4.87-7.12,1.39-7.44s-4.51,1.58-4.7-3.23-.79-16.69-.79-16.69-2.51-47-20.16-72.88l-1.51-15.42Z"/><path class="cls-6" d="M598,70.59l-23.26,3.32L573.3,90.75l-11.47,18s-25.52,18-7.72,46.32c-6.78,24.44-13.51,47.87-19.93,63.49-5,31,39.8,34,91,23,0,0-.7-13.26-5.35-19.63s-2.12-7.76-2.12-7.76l-3.24-11.91c1.83-17.2-4.37-18.75-7.29-26.7L616,93Z"/><path class="cls-5" d="M486.3,214.79a6.43,6.43,0,0,1,7.13-5.44,6.86,6.86,0,0,1,1,.22l13.47-17.92,11.5,3.64-21.11,22.55a6.39,6.39,0,0,1-6.73,4,6.13,6.13,0,0,1-5.28-6.88h0A.88.88,0,0,0,486.3,214.79Z"/><path class="cls-6" d="M606,103.19c-.33-.41-.69-.81-1.07-1.2a18.84,18.84,0,0,0-20.83-4.24c-.34.14-.68.3-1,.46-12,5.87-18.4,9.78-19.18,11.61-.27.62-.5,1.23-.73,1.82s-.43,1.13-.65,1.63c-.92,2.14-2,3.47-4.68,2.87a11,11,0,0,1-2.57-1c-.37-.18-.71-.37-1-.55-1.16-.64-2-1.1-2.57-.68s-.57,1.45-.07,3.86a7.92,7.92,0,0,1-.08,3,34.22,34.22,0,0,1-3.08,8.35,108.41,108.41,0,0,1-7,12l-23.79,33.92-1.61,2.29-1.76,2.51-14,20,.83.85,3.48,3.55.77.79.7.72,1.81,1.85,1.7,1.73,37.93-30.9L551.7,175l7.58-6.18,15.53-12.65L604.2,129a18.67,18.67,0,0,0,6-13.35c0-.17,0-.33,0-.5A18.62,18.62,0,0,0,606,103.19Z"/><circle class="cls-5" cx="584" cy="43.99" r="25.99"/><path class="cls-9" d="M618.45,80a41,41,0,0,1,6.83,16.71,17.25,17.25,0,0,1-9.42,2.71c-.11-.43-.23-.87-.36-1.31a37.36,37.36,0,0,0-4.27-9.6A22.52,22.52,0,0,1,610,98a16.6,16.6,0,0,0-5.58-1.44,10.2,10.2,0,0,0-4.54,1.07c-1.63-5.42-3.14-10.41-4.2-14,0,9-13.18,16.79-27.52,15.66-.52-.33,4.68-15.07,4.17-15.41-1.15-.77-2.26-1.59-3.38-2.4,4.7-7.25,9.79-15,8.92-16.19.06,1.44-5.08,8.37-10.68,14.91C564,78,581.69,40.83,573,37.81c-.14,1.32-2.07,1.32-4.42,1a23.73,23.73,0,0,0-2.73-6.13,14.58,14.58,0,0,1-.68,5.68,32.67,32.67,0,0,0-6.9.73,21.13,21.13,0,0,0-1.73-2.37,14,14,0,0,1-.08,2.74c-2.31.5-4.22,1.08-4.5,1.55-1.81-.66,1.28-3.66.15-5.21-2.88-3.88,1.39-9.55,4.09-13.56,5.55-8.23,17.74-11.08,26.37-6.14.39-1.34,2.38-2.23,4.94-2.83a13.53,13.53,0,0,1,3.3-.31c11,.19,26.29,9.28,26.89,20.27.05,1.1.13,2.29.21,3.57.77,12.31-.18,23.65,8.22,32.65,3,3.26,3.08,18.67,1.91,26.6C625,92.9,622.82,80.5,618.45,80Z"/><circle class="cls-10" cx="332.18" cy="141.51" r="3"/><path class="cls-4" d="M168.13,38.26a24.67,24.67,0,0,0-14.72,2.63c-5.67,3.09-9.5,8.45-11.8,14.25S132.89,72.35,132,78.58l.39-.4A27.82,27.82,0,0,0,135,81.9a17.72,17.72,0,0,1,6-4.22A22,22,0,0,0,138.85,86c2.43,7.78,12.47,5.72,19.7,6.08,7.79,6.16,15.88,7.06,27.33,2.65,3.21.34,6.79.54,9-1.39s.91-5.51,2.11-8.21c8.61-19.28.67-26.23-6.08-35-1.48-1.92-1.48-4.79-3.28-6.63-2.51-2.54-6.35-3.32-9.89-4"/><circle class="cls-2" cx="172.35" cy="66.38" r="20.29"/><circle class="cls-11" cx="444.24" cy="91.34" r="18.61"/><ellipse class="cls-11" cx="356.81" cy="62.27" rx="21.52" ry="18.61" transform="translate(289.02 418.08) rotate(-89.11)"/><ellipse class="cls-11" cx="400.97" cy="62.96" rx="21.52" ry="18.61" transform="translate(331.81 462.91) rotate(-89.11)"/><circle class="cls-11" cx="315.5" cy="91.34" r="18.61"/><path class="cls-11" d="M380.33,236.26a25.38,25.38,0,0,1-6.43-.83l-.41-.11-.39-.19a106.68,106.68,0,0,1-34.82-27.34,103.43,103.43,0,0,1-17.58-31.22,120.07,120.07,0,0,1-6.8-42.33c0-.3,0-.53,0-.7a16.67,16.67,0,0,1,9.91-15.65c4.6-1.91,46.39-19.08,49.41-20.32,5.69-2.85,11.76-.47,12.73-.06,2.18.89,40.81,16.7,49.16,20.67,8.61,4.1,10.9,11.46,10.9,15.17a123.43,123.43,0,0,1-8.63,46.57A107.69,107.69,0,0,1,418,211.15c-15.82,17.81-31.64,24.12-31.8,24.18A17.28,17.28,0,0,1,380.33,236.26Zm-3.72-9.21c1.37.3,4.53.77,6.59,0,2.62-.95,15.86-7.82,28.24-21.75,17.1-19.24,25.78-43.43,25.79-71.9,0-.58-.44-4.69-5.89-7.29-8.18-3.9-48.34-20.32-48.75-20.48l-.11,0c-.84-.35-3.52-1.1-5.37-.13l-.37.17c-.44.19-44.81,18.41-49.54,20.38-3.31,1.38-4.49,4.8-4.49,7.53,0,.2,0,.5,0,.87C322.32,153.89,326.83,201.82,376.61,227.05Z"/><path class="cls-11" d="M375.07,101.57S330.3,120,325.51,122s-7.2,6.8-7.2,11.59-3.6,67.39,56.76,97.65c0,0,5.48,1.52,9.64,0s56.92-27.09,56.92-97.84c0,0,0-7.2-8.4-11.2s-49-20.58-49-20.58S379.27,99.37,375.07,101.57Z"/><path class="cls-12" d="M379.87,116v98.09S334.7,192.3,335.1,135.14Z"/><polygon class="cls-13" points="380.46 186.46 366.07 167.96 374.44 161.45 381.25 170.21 404.27 145.91 411.96 153.2 380.46 186.46"/><path class="cls-4" d="M203.81,70l-35-5.55.52-5.61-2.68,5.27-5.39-.86,1-11.12L157,62.55l-10.44-1.66.09-.54c2.54-16,16.3-27.05,30.75-24.78l4.94.79c14.45,2.3,24.11,17.1,21.59,33.06Z"/><path class="cls-4" d="M187.86,110.65l-19-15h0l-10-.58-14.79,9.48L140.46,123l-8.57,20.82L144.46,200s1.18,4-1.91,4.51-2.72,6.43-2.72,6.43.63,5.15-2.37,5.6-11,.46-4,9.46,62.37-25,62.37-25l8-42.2s15.59-20.94-1.2-32.94Z"/><path class="cls-4" d="M157.6,60.3s-3.64,22,4,25.09-17.86-1.56-17.86-1.56l-1.32-11.62,7.93-15Z"/></g></g></svg>