<svg xmlns="http://www.w3.org/2000/svg" viewBox="0 0 352.47 226.38"><defs><style>.cls-1{fill:#fff;}.cls-2{fill:#f2f2f2;}.cls-3{fill:#a0616a;}.cls-4{fill:#c83e4d;}.cls-5{fill:#2f2e41;}.cls-6{fill:#ffb6b6;}.cls-7{fill:#e6e6e6;}.cls-8{fill:#3f3d3b;}.cls-9{fill:#3f3d56;}.cls-10{fill:#d11149;}.cls-11{fill:#6c63ff;}.cls-12{fill:#f9b225;}.cls-13{fill:#ffe194;}</style></defs><title>icono_adopta</title><g id="Capa_2" data-name="Capa 2"><g id="Capa_1-2" data-name="Capa 1"><rect class="cls-1" width="352.47" height="225.81"/><path class="cls-2" d="M123.37,218.21a1.08,1.08,0,0,1-.78-1.86l.07-.29,0-.07a2.87,2.87,0,0,0-5.3,0c-.87,2.09-2,4.18-2.25,6.4a8.44,8.44,0,0,0,.15,2.92,34,34,0,0,1-3.1-14.17,32.29,32.29,0,0,1,.2-3.68c.11-1,.27-2,.47-3a34.47,34.47,0,0,1,6.85-14.63,9.18,9.18,0,0,0,3.82-4,7.23,7.23,0,0,0,.64-1.92,8.54,8.54,0,0,1-.57-3c-.26-.39-.72-.59-1-1-1.41-1.91-3.35-1.58-4.36,1-2.17,1.09-2.19,2.9-.86,4.64.84,1.11,1,2.61,1.7,3.79a3.25,3.25,0,0,1-.23.29,35.46,35.46,0,0,0-3.63,5.75,14.35,14.35,0,0,0-.86-6.71,24.07,24.07,0,0,0-3.73-5.39,3,3,0,0,0-5.28,1.46V185c.2.12.4.24.59.37a1.44,1.44,0,0,1,.4,2,1.42,1.42,0,0,1-1,.63h0a14.59,14.59,0,0,0,.38,2.16c-1.75,6.76,2,9.22,7.41,9.33l.35.18a35.42,35.42,0,0,0-1.9,9,33.94,33.94,0,0,0,0,5.43V214a8.88,8.88,0,0,0-3-5.13c-2.34-1.92-5.64-2.63-8.16-4.17a1.66,1.66,0,0,0-2.55,1.62v.07a9.13,9.13,0,0,1,1.09.53c.21.11.4.23.6.36a1.46,1.46,0,0,1-.59,2.65h-.09a14.51,14.51,0,0,0,2.66,4.17c1.1,5.9,5.79,6.46,10.81,4.74h0a34.9,34.9,0,0,0,2.39,7h8.5l.09-.29a9.83,9.83,0,0,1-2.36-.14l1.9-2.33,0-.05,1-1.18h0a14.14,14.14,0,0,0-.41-3.61Z"/><polygon class="cls-3" points="57.92 205.34 60.27 207.82 71.17 199.75 67.71 196.08 57.92 205.34"/><path class="cls-4" d="M61.77,206.71l-2.66-2.49-.65-.62L51.69,209l1.76,1.86,2.08-1.32-1,2.51L59.24,217a1.53,1.53,0,0,0,2.62-1.28l-1-6.52,1.78-1.67Z"/><path class="cls-5" d="M109.52,115l-.75,8.12s-1.3,6.13-.4,5.63-.71,1.74-.28,3.67-3.63,16.38-1.8,14.89-1.06,8.84-2.89,13.94c-.56,1.57-1.14,3.17-1.72,4.75-.11.32-.23.64-.35,1-.75,2.06-1.5,4.09-2.22,6l-.3.79v0c-2.37,6.25-4.41,11.16-5.22,12-.42.42-7.15,5.27-13.92,10.14-7.11,5.1-14.28,10.21-14.28,10.21l-6.69-7,.46-.14,2.94-.86c5.63-1.66-1.52-4.24,3.59-6.09a11.55,11.55,0,0,0,2.62-1.14c1.27-1.24,3-4.2,3.78-3s4.46-8,5.52-8.88c.56-.5,2.4-2.8,4-4.82,1.36-1.74,2.53-3.28,2.53-3.28s0-.82.06-2.14c0-1.94.12-5,.2-8h0c0-1.14,0-2.28.08-3.36,0-.84,0-1.64,0-2.39,0-2.22.09-3.91.09-4.33,0-1.38,0-.31,1.08-1.14a4.6,4.6,0,0,0,.47-.41,6.86,6.86,0,0,0,.64-.68c.08-.18-.42.06-1.07-.07a2,2,0,0,1-.94-.48c-1.37-1.23.11-5,.11-5-3.11-6.21-2.88-11.31-1.43-15.24a19.61,19.61,0,0,1,5-7.38,18.7,18.7,0,0,1,2.76-2.17l.1-.51L92.4,112a11.77,11.77,0,0,1,1.73-.79,12,12,0,0,1,5.83-.58,17.4,17.4,0,0,1,5.57,1.8A21.13,21.13,0,0,1,109.52,115Z"/><polygon class="cls-3" points="80.2 218 83.61 218.32 86.47 205.06 81.45 204.59 80.2 218"/><path class="cls-4" d="M90,223.2,85,219l.22-2.43-1.17,0-3.64-.12h0l-.89,0L78,224.87l2.55.24.68-2.37.94,2.52,1.35.12,5.41.51H89a1.53,1.53,0,0,0,1.14-.52,1.5,1.5,0,0,0,.38-.87A1.52,1.52,0,0,0,90,223.2Z"/><path class="cls-5" d="M99.11,173c-1.29,7-6.77,23.55-10.08,33.21-1.51,4.42-2.56,7.41-2.56,7.41l-1.72-.54h0l-2.9-.92-1.06-.34h0l-1.28-.4s.14-7.89.16-15.49c0-3.19,0-6.33-.06-8.82a24.36,24.36,0,0,0-.39-5c-.8-1.58.55-1.75,2-2.15s.31-1-.24-2.28c-.38-.86.36-2,.88-2.65.15-.18.3-.35.47-.52l-.71-.24c1.36-1.74,2.53-3.28,2.53-3.28s0-.82.06-2.14c0-1.94.12-5,.2-8h0c0-1.14,0-2.28.08-3.36,2.18,1.68,4.3,3.32,6.22,4.84h0c4.62,3.65,8.09,6.59,8.58,7.52A6.71,6.71,0,0,1,99.11,173Z"/><path class="cls-6" d="M212.89,48.63a2.46,2.46,0,0,1,2.67,2.15c0,.13,0,.26,0,.39l7.87,3.36-.3,4.59-10.29-5.77a2.43,2.43,0,0,1-2.09-2.13,2.34,2.34,0,0,1,2.07-2.58h.06Z"/><path class="cls-7" d="M266.44,77a7.41,7.41,0,0,0-1.52-3.11c-.62-.74-1.2-1.41-1.73-2-.33-.37-.64-.73-.94-1-1.73-1.9-2.86-2.9-3.38-3-.25,0-.5-.08-.74-.11-1.24-.15-2.13-.26-2.16-1.56a3.43,3.43,0,0,1,0-.56,9.4,9.4,0,0,1,.2-.92,3.14,3.14,0,0,0,.12-.51c0-.23,0-.4-.1-.5s-.4-.11-.89.08l-.25.11-.1,0-.2.09a5,5,0,0,1-2.48.21,35.86,35.86,0,0,1-7.1-1.84l-25.52-9.92-.24.39-.56.9-.19.32-.22.36-1,1.55-.49.79L225.27,63l.89.67.77.59L242.67,76.1,248.54,80l1.31.87,5.58,3.68a7.2,7.2,0,0,0,10-2l.11-.16A7.23,7.23,0,0,0,266.44,77Z"/><path class="cls-7" d="M352,226.38H.49A.48.48,0,0,1,0,225.9a.49.49,0,0,1,.49-.49H352a.49.49,0,0,1,.48.49A.48.48,0,0,1,352,226.38Z"/><polygon class="cls-6" points="90.47 101.26 91.18 107.9 90.76 116.6 110.03 114.31 111.84 101.26 109.53 101.29 90.47 101.26"/><path class="cls-3" d="M75.2,128.52a3.49,3.49,0,0,1,.54-4.91,2.9,2.9,0,0,1,.52-.34l9.12-30.61,5.7,2.87-9.93,29.34a3.52,3.52,0,0,1-6,3.65Z"/><path class="cls-5" d="M91.46,77.23s-1.63-.87-2.74,2.88c-.9,3-8.14,20.88-8.23,25.23a2.75,2.75,0,0,0-2.18,2.57l9,1.2c1.57-1.32,2-3.11,1.37-3.63l1.94-5.32,8.12-16.9-6-5.43Z"/><path class="cls-3" d="M139.32,118.46a3.5,3.5,0,0,0-2.61-4.2,4.07,4.07,0,0,0-.61-.08l-20.92-23.9-4.44,5.3,21.64,22.16a3.51,3.51,0,0,0,6.94.72Z"/><path class="cls-5" d="M102.48,79.24s1.1-1.49,3.72,1.41C108.31,83,122.57,96,124.53,99.84a2.73,2.73,0,0,1,3.07,1.38l-7.55,5c-2-.51-3.13-1.94-2.81-2.68l-4-3.95L98.57,87.81l3.1-7.51Z"/><circle class="cls-8" cx="180.51" cy="91.42" r="53.43"/><path class="cls-9" d="M226.93,64.23a54.28,54.28,0,0,0-8-10.5c-.69-.7-1.4-1.38-2.13-2-.41-.37-.82-.74-1.23-1.09-.79-.68-1.6-1.34-2.43-2a53.8,53.8,0,0,0-86.41,42.8,54.18,54.18,0,0,0,.89,9.76.43.43,0,0,1,0,0c.27,1.48.61,2.93,1,4.37a53.81,53.81,0,0,0,97.61,14.23c.74-1.19,1.44-2.42,2.1-3.68A53.73,53.73,0,0,0,226.93,64.23Zm-46.42,80.24a53,53,0,0,1-53-53v0a53,53,0,0,1,91-37,51.31,51.31,0,0,1,3.64,4.14q1.68,2.13,3.15,4.42a53,53,0,0,1,6.18,43.28c-.47,1.62-1,3.2-1.64,4.76s-1.31,3.08-2.08,4.56A53.2,53.2,0,0,1,180.51,144.47Z"/><polygon class="cls-6" points="253.72 218.12 250.21 218.09 248.65 204.25 253.83 204.29 253.72 218.12"/><path class="cls-5" d="M254.65,216.5l-.92-.06-3.74-.25-1.2-.08,0,2.5-5.6,3.81a1.56,1.56,0,0,0,.87,2.86l7,.06,1.22-2.47.45,2.48,2.63,0Z"/><polygon class="cls-6" points="290.65 215.56 287.3 216.59 281.64 203.86 286.58 202.34 290.65 215.56"/><path class="cls-5" d="M291.05,213.74l-.89.21-3.64.89-1.17.28.73,2.4-4.19,5.31a1.58,1.58,0,0,0,1.23,2.55,1.77,1.77,0,0,0,.46-.07l6.67-2.05.41-2.73,1.18,2.24,2.52-.78Z"/><path class="cls-5" d="M246.66,101.69,240,121.15l-.22,1.55c-1.68,1.61.44,2.13-.36,2.56s-1.33,1.6-.26,1.81,4.53,76.1,9.08,79,7.32,5.08,6.49.77c-.34-1.74.14-11.06.83-21.57.07-1.19,1.31-2.45.24-3.61s.13-1.92.2-2.88c1-13.72,2.07-27.27,2.07-27.27S265.12,175.92,267,174s1.11,2.76,1.67,4.15c.47,1.16-1.53,3.44,1.42,3.47s9.88,23.73,10.58,23.7a50.4,50.4,0,0,0,7.63-.38c1.15-.24-3.94-18.17-8.2-33.66-.34-1.24-2.19-1.26-1-3.65s-4.72-17.81-4.21-18.53c1.34-1.89,1.85-2.71.53-2.84s-1.72.61-1.79-1.23-.31-6.37-.31-6.37-1-17.92-7.69-27.82L265,105Z"/><path class="cls-7" d="M263.38,64.55l-8.87,1.26L254,72.24l-4.38,6.85s-9.74,6.86-3,17.68C244.06,106.1,241.49,115,239,121c-1.91,11.83,15.19,13,34.73,8.78,0,0-.27-5.06-2-7.49s-.81-3-.81-3l-1.24-4.55c.7-6.56-1.67-7.15-2.78-10.19l3.38-31.48Z"/><path class="cls-6" d="M220.77,119.58a2.45,2.45,0,0,1,2.72-2.07,1.72,1.72,0,0,1,.38.08l5.14-6.84,4.39,1.39-8.06,8.61a2.44,2.44,0,0,1-2.57,1.52,2.33,2.33,0,0,1-2-2.62h0A.15.15,0,0,1,220.77,119.58Z"/><path class="cls-7" d="M266.44,77a4.36,4.36,0,0,0-.41-.46,7.18,7.18,0,0,0-7.95-1.62l-.38.18c-4.56,2.24-7,3.73-7.32,4.43l-.28.69a6.36,6.36,0,0,1-.25.63c-.35.81-.75,1.32-1.78,1.09a3.83,3.83,0,0,1-1-.38,3.58,3.58,0,0,1-.39-.21c-.44-.24-.76-.42-1-.26s-.22.56,0,1.48a2.79,2.79,0,0,1,0,1.15,13,13,0,0,1-1.17,3.19,40.08,40.08,0,0,1-2.67,4.57l-9.08,13-.61.87-.67,1-5.36,7.64.32.33,1.32,1.35.3.3.27.28.69.7.65.66,14.47-11.79,1.62-1.32,2.89-2.35,5.93-4.83,11.21-10.38a7.15,7.15,0,0,0,2.31-5.1c0-.06,0-.13,0-.19A7.16,7.16,0,0,0,266.44,77Z"/><circle class="cls-6" cx="258.05" cy="54.39" r="9.92"/><path class="cls-10" d="M271.2,68.15a15.75,15.75,0,0,1,2.61,6.38,6.64,6.64,0,0,1-3.6,1c0-.16-.08-.33-.13-.5a14.47,14.47,0,0,0-1.63-3.66A8.74,8.74,0,0,1,268,75a6.38,6.38,0,0,0-2.13-.55,3.83,3.83,0,0,0-1.73.41c-.63-2.07-1.2-4-1.61-5.34,0,3.42-5,6.41-10.5,6-.2-.12,1.78-5.75,1.59-5.88-.44-.29-.86-.6-1.29-.91,1.79-2.77,3.74-5.73,3.4-6.18,0,.55-1.94,3.19-4.07,5.69-1.19-.87,5.55-15,2.22-16.19-.06.5-.79.5-1.69.39a8.91,8.91,0,0,0-1-2.34,5.52,5.52,0,0,1-.26,2.17,12.24,12.24,0,0,0-2.63.28,7.44,7.44,0,0,0-.66-.9,6.06,6.06,0,0,1,0,1,4.09,4.09,0,0,0-1.72.59c-.69-.25.49-1.39.05-2-1.1-1.48.54-3.64,1.57-5.17a7.85,7.85,0,0,1,10.06-2.34c.15-.52.91-.86,1.89-1.09a4.81,4.81,0,0,1,1.26-.11c4.2.07,10,3.54,10.26,7.73,0,.42.05.88.08,1.37.29,4.69-.07,9,3.14,12.46,1.16,1.24,1.17,7.12.73,10.15C273.69,73.06,272.87,68.33,271.2,68.15Z"/><circle class="cls-11" cx="161.94" cy="91.61" r="1.14"/><path class="cls-5" d="M99.33,52.21a9.37,9.37,0,0,0-5.62,1,10.38,10.38,0,0,0-4.5,5.44c-.87,2.21-3.33,6.57-3.66,8.95l.15-.15a10.38,10.38,0,0,0,1,1.41A6.8,6.8,0,0,1,89,67.25a8.29,8.29,0,0,0-.8,3.17c.92,3,4.75,2.18,7.51,2.32,3,2.35,6.06,2.69,10.43,1,1.23.13,2.6.21,3.45-.53s.35-2.1.81-3.14c3.28-7.35.25-10-2.32-13.34-.57-.74-.56-1.83-1.25-2.53A6.87,6.87,0,0,0,103,52.7"/><circle class="cls-3" cx="100.94" cy="62.94" r="7.75"/><circle class="cls-12" cx="204.71" cy="72.47" r="7.1"/><ellipse class="cls-12" cx="171.34" cy="61.37" rx="8.21" ry="7.1" transform="translate(107.32 231.75) rotate(-89.11)"/><ellipse class="cls-12" cx="188.2" cy="61.63" rx="8.21" ry="7.1" transform="translate(123.66 248.85) rotate(-89.11)"/><circle class="cls-12" cx="155.57" cy="72.47" r="7.1"/><path class="cls-12" d="M180.32,127.78a9.77,9.77,0,0,1-2.46-.32l-.15,0-.15-.08a40.52,40.52,0,0,1-13.29-10.43A39.59,39.59,0,0,1,157.56,105,45.81,45.81,0,0,1,155,88.84v-.27a6.36,6.36,0,0,1,3.78-6l18.86-7.76a6.16,6.16,0,0,1,4.86,0c.83.34,15.57,6.37,18.76,7.89a6.78,6.78,0,0,1,4.16,5.79,47.18,47.18,0,0,1-3.29,17.77,41.4,41.4,0,0,1-7.4,11.93,35.85,35.85,0,0,1-12.14,9.22A6.57,6.57,0,0,1,180.32,127.78Zm-1.42-3.52a5.28,5.28,0,0,0,2.51,0,33.84,33.84,0,0,0,10.78-8.3c6.53-7.35,9.84-16.58,9.85-27.45a3.5,3.5,0,0,0-2.25-2.78c-3.13-1.49-18.45-7.75-18.61-7.82h0a2.75,2.75,0,0,0-2,0l-.14.06L160,85.7a3,3,0,0,0-1.71,2.87c0,.08,0,.19,0,.34C158.18,96.34,159.9,114.63,178.9,124.26Z"/><path class="cls-12" d="M178.31,76.37l-18.92,7.78a4.65,4.65,0,0,0-2.74,4.42c0,1.84-1.37,25.72,21.66,37.27a7.1,7.1,0,0,0,3.68,0c1.59-.57,21.72-10.34,21.72-37.34a5.08,5.08,0,0,0-3.2-4.27c-3.2-1.53-18.69-7.86-18.69-7.86A4.52,4.52,0,0,0,178.31,76.37Z"/><path class="cls-13" d="M180.14,81.86V119.3S162.9,111,163.06,89.18Z"/><polygon class="cls-1" points="180.37 108.77 174.88 101.71 178.07 99.22 180.67 102.57 189.45 93.29 192.39 96.08 180.37 108.77"/><path class="cls-5" d="M113,64.31,99.58,62.19l.2-2.14-1,2-2-.32.39-4.25-2,4-4-.63,0-.21c1-6.09,6.23-10.32,11.74-9.46l1.89.3c5.51.88,9.2,6.53,8.24,12.62Z"/><path class="cls-5" d="M106.86,79.84l-7.25-5.73h0l-3.81-.22-5.65,3.62-1.38,7-3.27,8L90.3,114s.45,1.54-.73,1.73-1,2.45-1,2.45.24,2-.91,2.14-4.19.17-1.52,3.61,23.8-9.56,23.8-9.56L113,98.22s6-8-.46-12.58Z"/><path class="cls-5" d="M95.31,60.62S93.92,69,96.82,70.19,90,69.6,90,69.6l-.51-4.44,3-5.73Z"/></g></g></svg>