<svg xmlns="http://www.w3.org/2000/svg" viewBox="0 0 779 666"><defs><style>.cls-1{fill:#fff;}.cls-2{fill:#f2f2f2;}.cls-3{fill:#e6e6e6;}.cls-4{fill:#3f3d3b;}.cls-5{fill:#ffe194;}.cls-6{fill:#d11149;}.cls-7{fill:#f9b225;}.cls-8{fill:#242728;}.cls-9{opacity:0.1;isolation:isolate;}.cls-10{fill:#05090a;}.cls-11{fill:#6c63ff;}.cls-12{fill:#a0616a;}.cls-13{fill:#3f3d56;}.cls-14{fill:#2f2e41;}</style></defs><title>icono_encuentra_2</title><g id="Capa_2" data-name="Capa 2"><g id="Capa_1-2" data-name="Capa 1"><rect class="cls-1" x="705" y="7" width="24" height="3"/><rect class="cls-1" x="705" y="16" width="24" height="3"/><rect class="cls-1" x="705" y="25" width="24" height="3"/><ellipse class="cls-2" cx="629" cy="635" rx="150" ry="31"/><path class="cls-3" d="M45.9,387c.9,2.1,1.8,4.2,2.8,6.3l-2.1,1c-1-2.1-1.9-4.2-2.8-6.3Z"/><path class="cls-3" d="M417.1,220.4c1.3,2.8,2.6,5.6,3.7,8.5l-2.1.9c-1.8-4.2-3.7-8.5-5.8-12.6l2.1-1Q416.05,218.15,417.1,220.4Zm-8.7-16.6-2,1.2c-2.3-4-4.8-7.9-7.4-11.7l1.9-1.3C403.5,195.7,406,199.7,408.4,203.8ZM425.8,242c1.5,4.4,2.9,8.9,4,13.4l-2.2.6c-1.2-4.4-2.5-8.9-4-13.3Zm-33.2-61.4-1.8,1.4c-2.8-3.6-5.9-7.2-8.9-10.6l1.7-1.5c3.1,3.4,6.1,7,9,10.7Zm40.3,88.5c.9,4.6,1.6,9.2,2.2,13.9l-2.3.3c-.6-4.6-1.3-9.2-2.1-13.7ZM373.8,159.8l-1.6,1.7c-3.3-3.2-6.8-6.3-10.3-9.3l1.5-1.8C366.9,153.4,370.4,156.6,373.8,159.8Zm62.5,137.1c.2,4.7.3,9.4.2,14h-2.3c.1-4.6,0-9.3-.2-13.9Zm-84-155.1-1.4,1.9c-3.7-2.7-7.6-5.3-11.5-7.8l1.2-1.9Q346.6,137.75,352.3,141.8ZM435.8,325c-.4,4.6-1,9.3-1.7,13.9l-2.3-.4c.7-4.5,1.3-9.2,1.7-13.8ZM328.5,127l-1.1,2c-4.1-2.2-8.2-4.2-12.4-6.1l.9-2.1C320.2,122.7,324.4,124.8,328.5,127ZM431.4,352.7c-1,4.5-2.2,9.1-3.6,13.6l-2.2-.7c1.3-4.4,2.5-8.9,3.5-13.4ZM303,115.4l-.8,2.2c-4.3-1.6-8.7-3.1-13.2-4.4l.7-2.2C294.1,112.3,298.6,113.8,303,115.4ZM423.3,379.5c-1.6,4.4-3.5,8.7-5.4,12.9l-2.1-1c1.9-4.2,3.7-8.5,5.3-12.8Zm-147.2-272-.5,2.2c-4.5-1-9.1-1.9-13.6-2.5l.3-2.3C266.9,105.6,271.6,106.5,276.1,107.5ZM411.7,405c-2.2,4.1-4.6,8.2-7.1,12.1l-1.9-1.2c2.5-3.9,4.8-7.9,7-12ZM248.4,103.3l-.2,2.3c-4.6-.4-9.3-.6-13.9-.7v-2.3c4.7.1,9.4.3,14.1.7ZM396.7,428.7c-2.8,3.7-5.7,7.4-8.7,11l-1.8-1.5c3-3.5,5.9-7.2,8.6-10.9ZM220.3,103l.1,2.3c-4.6.3-9.3.7-13.8,1.3l-.3-2.3A130,130,0,0,1,220.3,103ZM378.6,450.1c-3.2,3.3-6.7,6.6-10.1,9.7l-1.5-1.7c3.4-3.1,6.8-6.3,10-9.6ZM192.5,106.5l.4,2.3c-4.5.9-9.1,1.9-13.5,3.1l-.6-2.2C183.3,108.4,187.9,107.4,192.5,106.5ZM357.7,468.8c-3.7,2.9-7.5,5.6-11.4,8.2l-1.3-1.9c3.8-2.6,7.6-5.3,11.2-8.1Zm-192.3-355,.7,2.2c-4.3,1.5-8.7,3.2-12.9,5l-.9-2.1C156.6,117,161,115.3,165.4,113.8Zm169,370.6c-4,2.3-8.2,4.5-12.4,6.6l-1-2.1c4.1-2,8.3-4.2,12.2-6.5ZM140.6,126.7c-4.1,2.1-8.2,4.3-12.2,6.7l-1.2-2c4-2.4,8.1-4.6,12.3-6.7Zm-23.8,14.2c-3.8,2.6-7.5,5.4-11.1,8.3l-1.4-1.8c3.6-2.9,7.4-5.7,11.3-8.4ZM95.1,158.1c-3.4,3.1-6.7,6.4-9.9,9.7l-1.7-1.6c3.2-3.4,6.6-6.7,10-9.8ZM76,178.2c-2.9,3.5-5.8,7.2-8.5,11l-1.9-1.3c2.7-3.8,5.6-7.5,8.6-11.1ZM59.9,200.7c-2.4,3.9-4.7,8-6.9,12l-2-1.1c2.2-4.1,4.5-8.2,7-12.2Zm-13,24.5c-1.9,4.2-3.6,8.5-5.2,12.9l-2.2-.8c1.6-4.4,3.4-8.8,5.2-13Zm-9.5,26c-1.3,4.4-2.4,9-3.4,13.5l-2.2-.5c1-4.5,2.1-9.1,3.4-13.6Zm-5.8,27.1q-1.05,6.9-1.5,13.8l-2.3-.2c.4-4.6.9-9.3,1.5-13.9ZM29.5,306c0,4.6.1,9.3.4,13.9l-2.3.1c-.3-4.6-.4-9.4-.4-14Zm1.7,27.7c.6,4.6,1.4,9.2,2.3,13.7l-2.3.5c-.9-4.6-1.7-9.2-2.3-13.8Zm5.5,27.2c1.2,4.4,2.6,8.9,4.1,13.2l-2.2.8c-1.5-4.4-3-8.9-4.2-13.4Z"/><path class="cls-3" d="M308.1,494.8l.9,2.1c-2.1.9-4.3,1.7-6.5,2.5l-.8-2.2C303.8,496.5,305.9,495.6,308.1,494.8Z"/><path class="cls-4" d="M416.1,398.5c-.2-.4-5.6-9.4-7.5-28.2-1.7-17.2-.6-46.2,14.4-86.7,28.5-76.7-6.6-138.5-6.9-139.1l1.7-1c.1.2,9.1,15.9,14.5,41a178.8,178.8,0,0,1-7.4,99.8c-28.5,76.5-7.3,112.8-7.1,113.1Z"/><circle class="cls-5" cx="405" cy="127" r="13"/><circle class="cls-6" cx="446" cy="175" r="13"/><circle class="cls-7" cx="418" cy="207" r="13"/><circle class="cls-5" cx="452" cy="234" r="13"/><circle class="cls-6" cx="408" cy="276" r="13"/><path class="cls-4" d="M424,399s-13-32,26-56Z"/><path class="cls-4" d="M408,398.4s-5.9-34-51.7-33.7Z"/><path class="cls-4" d="M322.2,159.9a2,2,0,0,0-1.4,3.7,59.06,59.06,0,0,1,17.6,15c22.4,28.5,14.6,72-17.5,97.3a79.06,79.06,0,0,1-50.3,17.4c21.5,6.1,47,1.3,67.4-14.8,32.1-25.3,39.9-68.8,17.5-97.3A59.11,59.11,0,0,0,322.2,159.9Z"/><path class="cls-8" d="M338.3,178.9c22.4,28.5,14.6,72-17.5,97.3A79.88,79.88,0,0,1,280,293.1a78.81,78.81,0,0,0,49-17.4c32.1-25.3,39.9-68.8,17.5-97.3a59.53,59.53,0,0,0-24.2-18.2h-.1a2,2,0,0,0-2.4,1.5,2,2,0,0,0,1,2.2A58.67,58.67,0,0,1,338.3,178.9Z"/><polygon class="cls-8" points="238.9 135 252.1 157.9 265.4 180.8 238.9 180.8 212.4 180.8 225.7 157.9 238.9 135"/><polygon class="cls-8" points="287.2 135 300.4 157.9 313.6 180.8 287.2 180.8 260.7 180.8 273.9 157.9 287.2 135"/><polygon class="cls-4" points="237.4 147 245.5 161.1 253.7 175.2 237.4 175.2 221 175.2 229.2 161.1 237.4 147"/><polygon class="cls-4" points="287 147 295.1 161.1 303.3 175.2 287 175.2 270.7 175.2 278.8 161.1 287 147"/><path class="cls-4" d="M342.1,298.1c0,51.4-36.5,93.1-81.6,93.1s-81.6-41.7-81.6-93.1S215.4,205,260.5,205c19.2,0,37.7,7.7,52.4,21.8C331.4,244.4,342.1,270.5,342.1,298.1Z"/><path class="cls-9" d="M322.8,226.7C315,247,291.2,261.8,263,261.8s-52-14.8-59.8-35.1A93.08,93.08,0,0,1,322.8,226.7Z"/><ellipse class="cls-4" cx="263" cy="205" rx="62.5" ry="49.6"/><circle class="cls-1" cx="233.7" cy="198.1" r="11.6"/><circle class="cls-1" cx="292.3" cy="198.1" r="11.6"/><circle class="cls-10" cx="233.7" cy="198.1" r="7.3"/><circle class="cls-10" cx="292.3" cy="198.1" r="7.3"/><circle class="cls-11" cx="250" cy="214.5" r="2.2"/><path class="cls-8" d="M247.5,213.9c-7,1.9-11.6,5.8-18.9,7.5a57.14,57.14,0,0,1-23.3.3c-1.3-.3-1.9,1-.6,1.2a60.88,60.88,0,0,0,23.3,0,45,45,0,0,0,10-3.2c3.5-1.6,6.5-3.5,10.5-4.7,1.3-.3.3-1.4-1-1.1Z"/><path class="cls-8" d="M250.3,213.4a63.38,63.38,0,0,0-10.2,2.3,50.21,50.21,0,0,1-11.8,2,52.77,52.77,0,0,1-22-3.4c-1.2-.5-2.2.7-1.1,1.1a54.46,54.46,0,0,0,22,3.6,56.1,56.1,0,0,0,11-1.4c4.2-1,8.1-2.5,12.7-3C252.2,214.5,251.6,213.2,250.3,213.4Z"/><path class="cls-8" d="M248.4,212.5c-5.4,3.1-7.7,7.6-13.5,10.6a50.87,50.87,0,0,1-22.3,5.1c-.6,0-1.1.3-1,.7s.5.6,1,.6a53.22,53.22,0,0,0,21.9-4.5,33.3,33.3,0,0,0,7.4-4.6c2.7-2.3,4.5-4.9,7.9-6.9,1.1-.6-.4-1.5-1.4-1Z"/><circle class="cls-11" cx="272.7" cy="214.5" r="2.2"/><path class="cls-8" d="M274.2,215c4.2,1.1,7.3,3,10.9,4.6a53.78,53.78,0,0,0,10.5,3.3,62.62,62.62,0,0,0,24.4,0c1.4-.3.8-1.5-.6-1.2a62.1,62.1,0,0,1-24.3-.3c-7.7-1.7-12.5-5.6-19.8-7.5-1.3-.3-2.4.8-1.1,1.1Z"/><path class="cls-8" d="M271.8,214.6c4.6.5,8.5,1.9,12.7,2.9a66.65,66.65,0,0,0,12.1,1.6,59.45,59.45,0,0,0,23-3.6c1.2-.5.1-1.6-1.1-1.1a57.83,57.83,0,0,1-23.1,3.4,60.77,60.77,0,0,1-12.3-2,61.57,61.57,0,0,0-10.7-2.3c-1.4-.3-2,1-.6,1.1Z"/><path class="cls-8" d="M272.8,213.4c3.6,2,5.5,4.6,8.3,6.9a32.77,32.77,0,0,0,7.8,4.6,57.74,57.74,0,0,0,22.9,4.5c.6,0,1.1-.3,1.1-.7s-.5-.6-1.1-.6a52.23,52.23,0,0,1-23.3-5.1c-6-3-8.4-7.5-14.1-10.6-1.1-.4-2.6.5-1.6,1Z"/><ellipse class="cls-8" cx="233.7" cy="387.7" rx="17.2" ry="9.9"/><ellipse class="cls-8" cx="292.3" cy="387.7" rx="17.2" ry="9.9"/><ellipse class="cls-8" cx="261.3" cy="214" rx="14.2" ry="8.2"/><path class="cls-2" d="M0,0V556H745V0ZM96,7A12,12,0,1,1,84,19,12,12,0,0,1,96,7ZM24,31A12,12,0,1,1,36,19,12,12,0,0,1,24,31ZM48,19A12,12,0,1,1,60,31,12,12,0,0,1,48,19ZM461,400H60V102H461Z"/><rect class="cls-1" x="524" y="94" width="181" height="9"/><rect class="cls-1" x="524" y="125" width="181" height="9"/><rect class="cls-1" x="524" y="156" width="181" height="9"/><rect class="cls-1" x="524" y="187" width="181" height="9"/><rect class="cls-1" x="524" y="218" width="181" height="9"/><rect class="cls-1" x="524" y="249" width="181" height="9"/><rect class="cls-1" x="524" y="280" width="181" height="9"/><rect class="cls-1" x="524" y="311" width="181" height="9"/><rect class="cls-1" x="524" y="342" width="181" height="9"/><rect class="cls-1" x="524" y="373" width="181" height="9"/><rect class="cls-7" x="524" y="477" width="181" height="51"/><path class="cls-12" d="M580.68,399.18a9.34,9.34,0,0,1-15.79-9.72l5.39-55.12,12.49,4.5-4.88,46.37a9.68,9.68,0,0,1,1.25.83,9.35,9.35,0,0,1,1.54,13.14Z"/><path class="cls-13" d="M587.37,229.17l13.13,56.75-17.78,77.59L566,361.42s1.54-24,2.58-25.3-.22-2.3-3.07-7.85,2.58-7.2,0-10.44,3-36,1.4-40.47.09-15,.16-26.66,20.35-21.53,20.35-21.53Z"/><path class="cls-12" d="M683.82,403.89a9.34,9.34,0,0,0,14.07-12.09l-14-53.58-11.63,6.42,12.13,45a9.63,9.63,0,0,0-1.1,1,9.35,9.35,0,0,0,.55,13.21Z"/><path class="cls-13" d="M646.4,295.17,676.19,369l16.18-4.7s-5.31-23.5-6.54-24.58-.15-2.31,1.79-8.23-3.68-6.71-1.59-10.33-8.62-35-7.76-39.73-2.46-14.83-4.36-26.3-23.49-18.06-23.49-18.06Z"/><polygon class="cls-12" points="567.51 549.78 546.25 549.77 553.11 605.32 567.51 605.32 567.51 549.78"/><path class="cls-14" d="M524,626.57a6.14,6.14,0,0,0,6.09,6.1h27.11l.84-1.75,3.83-7.91,1.49,7.91.32,1.75H574l-.15-1.76-2.72-32.69-3.57-.22-15.41-.92-3.79-.23v9.77C545.44,609.67,522.9,621.22,524,626.57Z"/><polygon class="cls-12" points="708.8 541.34 690.32 551.82 723.69 596.75 736.21 589.64 708.8 541.34"/><path class="cls-14" d="M708.89,629.57a6.1,6.1,0,0,0,8.31,2.3l1.42-.8h0l22.14-12.57-.7-10.7,6.35,7.5,4.69-2.67,4.2-2.39-3.71-5.43L735.81,581.7l-3.22,1.58-13.86,6.81-3.38,1.66,4.8,8.49C719.17,604.33,705.27,625.48,708.89,629.57Z"/><path class="cls-6" d="M639,332.67l-55-5c-15.56,42-34.34,150.49-41.86,253.37l28.94,2.07L612.9,573l-9.46-86.32,7.09-54.39L653.1,580.09l64.74-29L672.36,466.3c9.74-2.36-1.47-132.49-33.39-133.63Z"/><path class="cls-13" d="M648.48,322.55l4.36-18.24,10.25-61c-1.37-1.5-2.8-2.86-4.11-4L652.5,237l-8.34-3-14-15.42-20.87-.72L594.67,228.7c-.43,0-.85,0-1.28,0a18.83,18.83,0,0,0-18.95,18.71l9.76,80.27c-3.94,4.41-6.83,8.95-3.28,13.58l16.28,3.42c22.3,6.87,36.23,9.3,56.63-2.05l-.21-.79C657.55,335.72,654.33,329.21,648.48,322.55Z"/><path id="b-117" class="cls-14" d="M590.08,204.15c10.76,9.71,32.22,11.7,53.41,13.88a4.43,4.43,0,0,0,1.7.09,4.31,4.31,0,0,0,2.79-1.63,4.16,4.16,0,0,0,.75-1.52s7,5.71,6.08-23-5.7-34.34-22.67-38.79a32,32,0,0,0-33.45,11.46A31.51,31.51,0,0,0,593.1,176l-6.06,23a4.25,4.25,0,0,0,3,5.2h0Z"/><path id="c-118" class="cls-12" d="M639.91,179.9a23.13,23.13,0,0,0-10.63-14.34,23.42,23.42,0,0,0-34.77,25.7,23.14,23.14,0,0,0,10.61,14.34,23.41,23.41,0,0,0,34.79-25.7Z"/><path id="d-119" class="cls-14" d="M585.21,176.37c12,8.49,23.09,12.17,32.62,8.46l1.57-4.59.44,5.12,5,1.3,3.11-9.11.88,10.14,9.73,2.53.12-.46h0a25.06,25.06,0,0,0-17.82-30.65l-.16,0-4.6-1.19a25.12,25.12,0,0,0-10-.54c-8.89-3.58-13.48,2.31-16.4,9.6a25.26,25.26,0,0,0-4.42,9Z"/><path id="e-120" class="cls-14" d="M608.34,207a80.29,80.29,0,0,0,5.91-7.23,54.81,54.81,0,0,0,5.39-9.06,30.46,30.46,0,0,0,2.84-10,18.8,18.8,0,0,0-1.75-10l-.45-.92,26.34,6.82L636.2,216.15l-16.44-1.32,2.46-9.3-7.44,8.9-3.62-.28-.19,0-.19,0-.18,0-.19,0a4.25,4.25,0,0,1-2.41-1.68,3.9,3.9,0,0,1-.48-.9,4.19,4.19,0,0,1-.28-1.16,4.24,4.24,0,0,1,.42-2.27A4.19,4.19,0,0,1,608.34,207Z"/></g></g></svg>