<svg xmlns="http://www.w3.org/2000/svg" viewBox="0 0 269.49 227.03"><defs><style>.cls-1{fill:#e6e6e6;}.cls-2{fill:#fff;}.cls-3{fill:#f9b225;}.cls-4{fill:#2f2e41;}.cls-5{fill:#7f554f;}.cls-6{fill:#d11149;}.cls-7{fill:#3f3d3b;}.cls-8{opacity:0.3;isolation:isolate;}.cls-9{fill:#ccc;}</style></defs><title>icono_busca</title><g id="Capa_2" data-name="Capa 2"><g id="Capa_1-2" data-name="Capa 1"><rect class="cls-1" x="0.12" y="0.15" width="269.38" height="172.52"/><rect class="cls-2" x="7.82" y="21.79" width="253.97" height="140.68"/><rect class="cls-3" width="269.38" height="11.44"/><circle class="cls-2" cx="8.5" cy="5.85" r="2.12"/><circle class="cls-2" cx="16.56" cy="5.85" r="2.12"/><circle class="cls-2" cx="24.61" cy="5.85" r="2.12"/><rect class="cls-1" x="30.89" y="36.39" width="65.26" height="111.48"/><rect class="cls-3" x="107.42" y="36.39" width="54.38" height="30.69"/><rect class="cls-1" x="107.42" y="75.62" width="54.38" height="33.02"/><rect class="cls-1" x="107.42" y="117.18" width="54.38" height="30.69"/><rect class="cls-1" x="173.45" y="36.39" width="65.26" height="48.58"/><rect class="cls-1" x="173.45" y="99.29" width="65.26" height="48.58"/><path class="cls-4" d="M57.36,83.67H33.1a1.89,1.89,0,0,1-1.89-1.88V71.33h0a14,14,0,1,1,28,0V81.79A1.88,1.88,0,0,1,57.36,83.67Z"/><polygon class="cls-5" points="29.78 198.84 37.08 200.86 29.45 219.27 24.5 217.9 29.78 198.84"/><path class="cls-4" d="M37.71,226.5h0l-15.54-4.3h0l1.67-6h0l9.53,2.64A6.22,6.22,0,0,1,37.71,226.5Z"/><polygon class="cls-5" points="76.04 201.92 83.61 201.92 81.17 221.71 76.04 221.71 76.04 201.92"/><path class="cls-4" d="M91.06,226.47H74.94v-6.23h9.89A6.23,6.23,0,0,1,91.06,226.47Z"/><path class="cls-5" d="M82.23,111.14a4.23,4.23,0,0,0-6.08-5.8L63.39,110l-1.24,7.67,13.64-6.14a4.35,4.35,0,0,0,.55.5,4.21,4.21,0,0,0,5.89-.88Z"/><path class="cls-4" d="M36.9,154.55l-.14-.05-.84-43.71,23-7.48c2.45-.8,4.31-.75,5.7.16,2.68,1.74,3.16,6.38,3.72,11.75l.13,1.2c.36,3.37,1.75,6.79,3.21,10.41,2.37,5.84,4.82,11.89,2.88,18a16.05,16.05,0,0,1-8.25,9.85,27.59,27.59,0,0,1-12.44,2.54A61.18,61.18,0,0,1,36.9,154.55Z"/><path class="cls-6" d="M63.74,99.53a7,7,0,0,1-.42,9.2l2.09,10.46c6.28,8.79-24.47,14.44-22.8,5.23s-3.34-36.81-3.34-36.81c8.78-1.26,20.08,2.09,20.08,2.09Z"/><path class="cls-4" d="M68.5,119,57.39,92.37l-2.8-4.19.5.1a58.59,58.59,0,0,1,7.6,2.11c3.42,1.28,11,25,11.28,26l4.86,37.4L64.9,156.43Z"/><path class="cls-4" d="M56.44,149.32l-18.7,64.87-20.49-3.41,25.16-88.92.05-.18.19,0c20.82,3.26,22.22-4.1,22.23-4.17l.15-1,15,56.37,10.1,41.22-18,3Z"/><path class="cls-4" d="M25.37,155l7.2-50.47L30.89,90.67,31,90.6c.05-.06,5.18-5.09,11.08-3.4l.1,0,0,.1a77.54,77.54,0,0,1,4.2,26.44c-.41,14.06.82,49,.84,49.36v.31Z"/><circle class="cls-5" cx="48.11" cy="73.15" r="10.28"/><path class="cls-4" d="M62.56,72.37H47.72l-.15-2.13-.76,2.13H44.52l-.3-4.22-1.51,4.22H38.29v-.21A11.09,11.09,0,0,1,49.38,61.08h2.09A11.09,11.09,0,0,1,62.56,72.16Z"/><path class="cls-4" d="M47.6,85.62a1.84,1.84,0,0,1-.33,0L36.4,83.68v-18h12l-.29.34c-4.12,4.81-1,12.6,1.2,16.82a1.88,1.88,0,0,1-1.67,2.74Z"/><path class="cls-7" d="M93.18,82.64,30.94,135.16h0a4.68,4.68,0,1,0,6,7.15L99.21,89.79a50.75,50.75,0,1,0-6-7.15Zm12.92-5.06A38,38,0,0,1,110.64,24h0a38,38,0,1,1-4.54,53.57Z"/><path class="cls-8" d="M108.21,79.88c.6.85,1.24,1.67,1.91,2.47a38,38,0,0,0,58.11-49c-.68-.8-1.38-1.57-2.11-2.3a38,38,0,0,1-57.91,48.86Z"/><path class="cls-5" d="M48.06,125a4.23,4.23,0,0,0-4.22-4.24l-12.78-4.58-5.85,5.1,14.4,4a4.55,4.55,0,0,0,.11.74,4.23,4.23,0,0,0,8.34-1Z"/><path class="cls-4" d="M38.59,126.93c-.53-.14-13-3.37-16.36-5s-6-8.07-6-10.23,13.18-19.11,14.68-21l.1-.13,3.19,1.36,1.28,10.67L27.66,112l12,6.64L38.82,127Z"/><path class="cls-9" d="M0,226.61a.39.39,0,0,1,.36-.42H135.85a.43.43,0,0,1,0,.84H.36A.39.39,0,0,1,0,226.61Z"/></g></g></svg>