<svg xmlns="http://www.w3.org/2000/svg" viewBox="0 0 644.14 558.86"><defs><style>.cls-1{fill:#e6e6e6;}.cls-2{fill:#fff;}.cls-3{fill:#f9b225;}.cls-4{fill:#2f2e41;}.cls-5{fill:#7f554f;}.cls-6{fill:#d11149;}.cls-7{fill:#3f3d3b;}.cls-8{opacity:0.3;isolation:isolate;}.cls-9{fill:#ccc;}</style></defs><title>icono_buscar</title><g id="Capa_2" data-name="Capa 2"><g id="Capa_1-2" data-name="Capa 1"><rect class="cls-1" x="0.27" y="0.37" width="643.86" height="412.36"/><rect class="cls-2" x="18.69" y="52.08" width="607.04" height="336.24"/><rect class="cls-3" width="643.86" height="27.35"/><circle class="cls-2" cx="20.33" cy="13.98" r="5.07"/><circle class="cls-2" cx="39.57" cy="13.98" r="5.07"/><circle class="cls-2" cx="58.81" cy="13.98" r="5.07"/><rect class="cls-1" x="73.84" y="86.97" width="155.98" height="266.47"/><rect class="cls-3" x="256.75" y="86.97" width="129.98" height="73.35"/><rect class="cls-1" x="256.75" y="180.75" width="129.98" height="78.92"/><rect class="cls-1" x="256.75" y="280.09" width="129.98" height="73.35"/><rect class="cls-1" x="414.59" y="86.97" width="155.98" height="116.12"/><rect class="cls-1" x="414.59" y="237.31" width="155.98" height="116.12"/><path class="cls-4" d="M137.1,216.21h-58a4.51,4.51,0,0,1-4.5-4.5v-25h0a33.5,33.5,0,0,1,67,0v25A4.5,4.5,0,0,1,137.1,216.21Z"/><polygon class="cls-5" points="71.18 491.48 88.62 496.31 70.39 540.33 58.57 537.06 71.18 491.48"/><path class="cls-4" d="M90.14,557.6h0L53,547.33h0L57,533h0l22.79,6.31A14.89,14.89,0,0,1,90.14,557.6Z"/><polygon class="cls-5" points="181.75 498.86 199.85 498.86 194.01 546.14 181.75 546.14 181.75 498.86"/><path class="cls-4" d="M217.66,557.53H179.13V542.64h23.64A14.89,14.89,0,0,1,217.66,557.53Z"/><path class="cls-5" d="M196.54,281.87A10.11,10.11,0,0,0,182,268l-30.49,11.11-3,18.33,32.59-14.65a9.78,9.78,0,0,0,1.32,1.17,10.06,10.06,0,0,0,14.07-2.09Z"/><path class="cls-4" d="M88.21,385.63l-.34-.11L85.85,281l55-17.88c5.86-1.91,10.32-1.78,13.64.37,6.4,4.17,7.56,15.26,8.9,28.11l.3,2.86c.86,8.06,4.17,16.23,7.68,24.88,5.66,14,11.51,28.41,6.87,43.11A38.4,38.4,0,0,1,158.57,386c-8.91,4.54-19.51,6.07-29.75,6.07C107.9,392.11,88.49,385.73,88.21,385.63Z"/><path class="cls-6" d="M152.35,254.12c9,12-1,22-1,22l5,25c15,21-58.5,34.5-54.5,12.5s-8-88-8-88c21-3,48,5,48,5Z"/><path class="cls-4" d="M163.73,300.65,137.16,237l-6.67-10,1.19.23a139.22,139.22,0,0,1,18.16,5.05C158,235.34,176,292,176.79,294.48l11.62,89.41-33.28,6.23Z"/><path class="cls-4" d="M134.89,373.12,90.21,528.18l-49-8.16,60.15-212.54.12-.42.44.06c49.77,7.81,53.12-9.79,53.15-10l.36-2.39,35.9,134.74L215.47,528l-43,7.17Z"/><path class="cls-4" d="M60.63,386.75,77.85,266.11l-4-33.17.17-.18c.12-.12,12.37-12.16,26.49-8.12l.24.07.09.23c.11.29,11,29.48,10,63.19s2,117.13,2,118l0,.76Z"/><circle class="cls-5" cx="114.99" cy="191.07" r="24.56"/><path class="cls-4" d="M149.53,189.21H114.06l-.36-5.09-1.82,5.09h-5.46l-.72-10.09-3.6,10.09H91.53v-.5a26.53,26.53,0,0,1,26.5-26.5h5a26.53,26.53,0,0,1,26.5,26.5Z"/><path class="cls-4" d="M113.77,220.88a5.27,5.27,0,0,1-.79-.07l-26-4.59V173.3H115.6l-.71.83c-9.85,11.48-2.43,30.11,2.87,40.18a4.5,4.5,0,0,1-4,6.57Z"/><path class="cls-7" d="M208.8,222.2,43.18,362h0a12.45,12.45,0,0,0,16.07,19L224.85,241.22a135,135,0,1,0-16-19Zm34.38-13.46A101.15,101.15,0,0,1,255.26,66.2h0a101.16,101.16,0,1,1-12.08,142.54Z"/><path class="cls-8" d="M248.79,214.86q2.39,3.36,5.09,6.56A101.16,101.16,0,1,0,408.5,91q-2.7-3.2-5.61-6.12a101.16,101.16,0,0,1-154.1,130Z"/><path class="cls-5" d="M114.88,315a10.12,10.12,0,0,0-10.09-10.14L74.24,293.91l-14,12.21,34.43,9.55a10.55,10.55,0,0,0,.27,1.76A10.12,10.12,0,0,0,114.88,315Z"/><path class="cls-4" d="M92.23,319.6c-1.27-.33-31.14-8.06-39.1-12-8.25-4.13-14.28-19.29-14.28-24.45S70.37,237.43,74,232.81l.24-.3,7.62,3.26,3.06,25.5L66.12,284l28.77,15.87-2.1,19.91Z"/><path class="cls-9" d="M0,557.86a.94.94,0,0,1,.85-1H324.7a1,1,0,0,1,0,2H.85A.93.93,0,0,1,0,557.86Z"/></g></g></svg>