<svg xmlns="http://www.w3.org/2000/svg" viewBox="0 0 779 669"><defs><style>.cls-1{fill:#f2f2f2;}.cls-2{fill:#e6e6e6;}.cls-3{fill:#3f3d3b;}.cls-4{fill:#ffe194;}.cls-5{fill:#d11149;}.cls-6{fill:#f9b225;}.cls-7{fill:#242728;}.cls-8{opacity:0.1;isolation:isolate;}.cls-9{fill:#fff;}.cls-10{fill:#05090a;}.cls-11{fill:#6c63ff;}.cls-12{fill:#2f2e41;}.cls-13{fill:#ffb9b9;}</style></defs><title>icono_encuentra</title><g id="Capa_2" data-name="Capa 2"><g id="Capa_1-2" data-name="Capa 1"><ellipse class="cls-1" cx="629" cy="638" rx="150" ry="31"/><path class="cls-2" d="M45.9,390c.9,2.1,1.8,4.2,2.8,6.3l-2.1,1c-1-2.1-1.9-4.2-2.8-6.3Z"/><path class="cls-2" d="M417.1,223.4c1.3,2.8,2.6,5.6,3.7,8.5l-2.1.9c-1.8-4.2-3.7-8.5-5.8-12.6l2.1-1Q416.05,221.15,417.1,223.4Zm-8.7-16.6-2,1.2c-2.3-4-4.8-7.9-7.4-11.7l1.9-1.3C403.5,198.7,406,202.7,408.4,206.8ZM425.8,245c1.5,4.4,2.9,8.9,4,13.4l-2.2.6c-1.2-4.4-2.5-8.9-4-13.3Zm-33.2-61.4-1.8,1.4c-2.8-3.6-5.9-7.2-8.9-10.6l1.7-1.5c3.1,3.4,6.1,7,9,10.7Zm40.3,88.5c.9,4.6,1.6,9.2,2.2,13.9l-2.3.3c-.6-4.6-1.3-9.2-2.1-13.7ZM373.8,162.8l-1.6,1.7c-3.3-3.2-6.8-6.3-10.3-9.3l1.5-1.8C366.9,156.4,370.4,159.6,373.8,162.8Zm62.5,137.1c.2,4.7.3,9.4.2,14h-2.3c.1-4.6,0-9.3-.2-13.9Zm-84-155.1-1.4,1.9c-3.7-2.7-7.6-5.3-11.5-7.8l1.2-1.9Q346.6,140.75,352.3,144.8ZM435.8,328c-.4,4.6-1,9.3-1.7,13.9l-2.3-.4c.7-4.5,1.3-9.2,1.7-13.8ZM328.5,130l-1.1,2c-4.1-2.2-8.2-4.2-12.4-6.1l.9-2.1C320.2,125.7,324.4,127.8,328.5,130ZM431.4,355.7c-1,4.5-2.2,9.1-3.6,13.6l-2.2-.7c1.3-4.4,2.5-8.9,3.5-13.4ZM303,118.4l-.8,2.2c-4.3-1.6-8.7-3.1-13.2-4.4l.7-2.2C294.1,115.3,298.6,116.8,303,118.4ZM423.3,382.5c-1.6,4.4-3.5,8.7-5.4,12.9l-2.1-1c1.9-4.2,3.7-8.5,5.3-12.8Zm-147.2-272-.5,2.2c-4.5-1-9.1-1.9-13.6-2.5l.3-2.3C266.9,108.6,271.6,109.5,276.1,110.5ZM411.7,408c-2.2,4.1-4.6,8.2-7.1,12.1l-1.9-1.2c2.5-3.9,4.8-7.9,7-12ZM248.4,106.3l-.2,2.3c-4.6-.4-9.3-.6-13.9-.7v-2.3c4.7.1,9.4.3,14.1.7ZM396.7,431.7c-2.8,3.7-5.7,7.4-8.7,11l-1.8-1.5c3-3.5,5.9-7.2,8.6-10.9ZM220.3,106l.1,2.3c-4.6.3-9.3.7-13.8,1.3l-.3-2.3A130,130,0,0,1,220.3,106ZM378.6,453.1c-3.2,3.3-6.7,6.6-10.1,9.7l-1.5-1.7c3.4-3.1,6.8-6.3,10-9.6ZM192.5,109.5l.4,2.3c-4.5.9-9.1,1.9-13.5,3.1l-.6-2.2C183.3,111.4,187.9,110.4,192.5,109.5ZM357.7,471.8c-3.7,2.9-7.5,5.6-11.4,8.2l-1.3-1.9c3.8-2.6,7.6-5.3,11.2-8.1Zm-192.3-355,.7,2.2c-4.3,1.5-8.7,3.2-12.9,5l-.9-2.1C156.6,120,161,118.3,165.4,116.8Zm169,370.6c-4,2.3-8.2,4.5-12.4,6.6l-1-2.1c4.1-2,8.3-4.2,12.2-6.5ZM140.6,129.7c-4.1,2.1-8.2,4.3-12.2,6.7l-1.2-2c4-2.4,8.1-4.6,12.3-6.7Zm-23.8,14.2c-3.8,2.6-7.5,5.4-11.1,8.3l-1.4-1.8c3.6-2.9,7.4-5.7,11.3-8.4ZM95.1,161.1c-3.4,3.1-6.7,6.4-9.9,9.7l-1.7-1.6c3.2-3.4,6.6-6.7,10-9.8ZM76,181.2c-2.9,3.5-5.8,7.2-8.5,11l-1.9-1.3c2.7-3.8,5.6-7.5,8.6-11.1ZM59.9,203.7c-2.4,3.9-4.7,8-6.9,12l-2-1.1c2.2-4.1,4.5-8.2,7-12.2Zm-13,24.5c-1.9,4.2-3.6,8.5-5.2,12.9l-2.2-.8c1.6-4.4,3.4-8.8,5.2-13Zm-9.5,26c-1.3,4.4-2.4,9-3.4,13.5l-2.2-.5c1-4.5,2.1-9.1,3.4-13.6Zm-5.8,27.1q-1.05,6.9-1.5,13.8l-2.3-.2c.4-4.6.9-9.3,1.5-13.9ZM29.5,309c0,4.6.1,9.3.4,13.9l-2.3.1c-.3-4.6-.4-9.4-.4-14Zm1.7,27.7c.6,4.6,1.4,9.2,2.3,13.7l-2.3.5c-.9-4.6-1.7-9.2-2.3-13.8Zm5.5,27.2c1.2,4.4,2.6,8.9,4.1,13.2l-2.2.8c-1.5-4.4-3-8.9-4.2-13.4Z"/><path class="cls-2" d="M308.1,497.8l.9,2.1c-2.1.9-4.3,1.7-6.5,2.5l-.8-2.2C303.8,499.5,305.9,498.6,308.1,497.8Z"/><path class="cls-3" d="M416.1,401.5c-.2-.4-5.6-9.4-7.5-28.2-1.7-17.2-.6-46.2,14.4-86.7,28.5-76.7-6.6-138.5-6.9-139.1l1.7-1c.1.2,9.1,15.9,14.5,41a178.8,178.8,0,0,1-7.4,99.8c-28.5,76.5-7.3,112.8-7.1,113.1Z"/><circle class="cls-4" cx="405" cy="130" r="13"/><circle class="cls-5" cx="446" cy="178" r="13"/><circle class="cls-6" cx="418" cy="210" r="13"/><circle class="cls-4" cx="452" cy="237" r="13"/><circle class="cls-5" cx="408" cy="279" r="13"/><path class="cls-3" d="M424,402s-13-32,26-56Z"/><path class="cls-3" d="M408,401.4s-5.9-34-51.7-33.7Z"/><path class="cls-3" d="M322.2,162.9a2,2,0,0,0-1.4,3.7,59.06,59.06,0,0,1,17.6,15c22.4,28.5,14.6,72-17.5,97.3a79.06,79.06,0,0,1-50.3,17.4c21.5,6.1,47,1.3,67.4-14.8,32.1-25.3,39.9-68.8,17.5-97.3A59.11,59.11,0,0,0,322.2,162.9Z"/><path class="cls-7" d="M338.3,181.9c22.4,28.5,14.6,72-17.5,97.3A79.88,79.88,0,0,1,280,296.1a78.81,78.81,0,0,0,49-17.4c32.1-25.3,39.9-68.8,17.5-97.3a59.53,59.53,0,0,0-24.2-18.2h-.1a2,2,0,0,0-2.4,1.5,2,2,0,0,0,1,2.2A58.67,58.67,0,0,1,338.3,181.9Z"/><polygon class="cls-7" points="238.9 138 252.1 160.9 265.4 183.8 238.9 183.8 212.4 183.8 225.7 160.9 238.9 138"/><polygon class="cls-7" points="287.2 138 300.4 160.9 313.6 183.8 287.2 183.8 260.7 183.8 273.9 160.9 287.2 138"/><polygon class="cls-3" points="237.4 150 245.5 164.1 253.7 178.2 237.4 178.2 221 178.2 229.2 164.1 237.4 150"/><polygon class="cls-3" points="287 150 295.1 164.1 303.3 178.2 287 178.2 270.7 178.2 278.8 164.1 287 150"/><path class="cls-3" d="M342.1,301.1c0,51.4-36.5,93.1-81.6,93.1s-81.6-41.7-81.6-93.1S215.4,208,260.5,208c19.2,0,37.7,7.7,52.4,21.8C331.4,247.4,342.1,273.5,342.1,301.1Z"/><path class="cls-8" d="M322.8,229.7C315,250,291.2,264.8,263,264.8s-52-14.8-59.8-35.1A93.08,93.08,0,0,1,322.8,229.7Z"/><ellipse class="cls-3" cx="263" cy="208" rx="62.5" ry="49.6"/><circle class="cls-9" cx="233.7" cy="201.1" r="11.6"/><circle class="cls-9" cx="292.3" cy="201.1" r="11.6"/><circle class="cls-10" cx="233.7" cy="201.1" r="7.3"/><circle class="cls-10" cx="292.3" cy="201.1" r="7.3"/><circle class="cls-11" cx="250" cy="217.5" r="2.2"/><path class="cls-7" d="M247.5,216.9c-7,1.9-11.6,5.8-18.9,7.5a57.14,57.14,0,0,1-23.3.3c-1.3-.3-1.9,1-.6,1.2a60.88,60.88,0,0,0,23.3,0,45,45,0,0,0,10-3.2c3.5-1.6,6.5-3.5,10.5-4.7,1.3-.3.3-1.4-1-1.1Z"/><path class="cls-7" d="M250.3,216.4a63.38,63.38,0,0,0-10.2,2.3,50.21,50.21,0,0,1-11.8,2,52.77,52.77,0,0,1-22-3.4c-1.2-.5-2.2.7-1.1,1.1a54.46,54.46,0,0,0,22,3.6,56.1,56.1,0,0,0,11-1.4c4.2-1,8.1-2.5,12.7-3C252.2,217.5,251.6,216.2,250.3,216.4Z"/><path class="cls-7" d="M248.4,215.5c-5.4,3.1-7.7,7.6-13.5,10.6a50.87,50.87,0,0,1-22.3,5.1c-.6,0-1.1.3-1,.7s.5.6,1,.6a53.22,53.22,0,0,0,21.9-4.5,33.3,33.3,0,0,0,7.4-4.6c2.7-2.3,4.5-4.9,7.9-6.9,1.1-.6-.4-1.5-1.4-1Z"/><circle class="cls-11" cx="272.7" cy="217.5" r="2.2"/><path class="cls-7" d="M274.2,218c4.2,1.1,7.3,3,10.9,4.6a53.78,53.78,0,0,0,10.5,3.3,62.62,62.62,0,0,0,24.4,0c1.4-.3.8-1.5-.6-1.2a62.1,62.1,0,0,1-24.3-.3c-7.7-1.7-12.5-5.6-19.8-7.5-1.3-.3-2.4.8-1.1,1.1Z"/><path class="cls-7" d="M271.8,217.6c4.6.5,8.5,1.9,12.7,2.9a66.65,66.65,0,0,0,12.1,1.6,59.45,59.45,0,0,0,23-3.6c1.2-.5.1-1.6-1.1-1.1a57.83,57.83,0,0,1-23.1,3.4,60.77,60.77,0,0,1-12.3-2,61.57,61.57,0,0,0-10.7-2.3c-1.4-.3-2,1-.6,1.1Z"/><path class="cls-7" d="M272.8,216.4c3.6,2,5.5,4.6,8.3,6.9a32.77,32.77,0,0,0,7.8,4.6,57.74,57.74,0,0,0,22.9,4.5c.6,0,1.1-.3,1.1-.7s-.5-.6-1.1-.6a52.23,52.23,0,0,1-23.3-5.1c-6-3-8.4-7.5-14.1-10.6-1.1-.4-2.6.5-1.6,1Z"/><ellipse class="cls-7" cx="233.7" cy="390.7" rx="17.2" ry="9.9"/><ellipse class="cls-7" cx="292.3" cy="390.7" rx="17.2" ry="9.9"/><ellipse class="cls-7" cx="261.3" cy="217" rx="14.2" ry="8.2"/><path class="cls-1" d="M0,0V556H745V0ZM96,7A12,12,0,1,1,84,19,12,12,0,0,1,96,7ZM24,31A12,12,0,1,1,36,19,12,12,0,0,1,24,31ZM48,19A12,12,0,1,1,60,31,12,12,0,0,1,48,19ZM461,400H60V102H461Z"/><rect class="cls-9" x="705" y="10" width="24" height="3"/><rect class="cls-9" x="705" y="19" width="24" height="3"/><rect class="cls-9" x="705" y="28" width="24" height="3"/><rect class="cls-9" x="524" y="97" width="181" height="9"/><rect class="cls-9" x="524" y="128" width="181" height="9"/><rect class="cls-9" x="524" y="159" width="181" height="9"/><rect class="cls-9" x="524" y="190" width="181" height="9"/><rect class="cls-9" x="524" y="221" width="181" height="9"/><rect class="cls-9" x="524" y="252" width="181" height="9"/><rect class="cls-9" x="524" y="283" width="181" height="9"/><rect class="cls-9" x="524" y="314" width="181" height="9"/><rect class="cls-9" x="524" y="345" width="181" height="9"/><rect class="cls-9" x="524" y="376" width="181" height="9"/><circle class="cls-9" cx="84" cy="421" r="12"/><circle class="cls-9" cx="125" cy="421" r="12"/><circle class="cls-9" cx="166" cy="421" r="12"/><rect class="cls-6" x="524" y="480" width="181" height="51"/><path class="cls-12" d="M660.8,610.5s7.7,16.9-3.1,18.5-60.6,5.6-57.5-3.1S640.8,609,640.8,609Z"/><path class="cls-12" d="M677.4,639.2s10.1,22.3-4,24.3-79.6,7.4-75.6-4,53.3-22.3,53.3-22.3Z"/><path class="cls-10" d="M614,439.4l2,70.9,21.6,83s-4.7,14.2-1.3,17.5,18.9,9.4,18.9,9.4L642.4,443.4Z"/><path class="cls-10" d="M689.5,376.7S681.4,420.6,676,428s2.7,61.4,2.7,61.4,12.1,77.6,6.7,89.7-4,8.1-3.4,14.8,2,12.1,0,18.2-2,5.4-2.7,8.8,0,21.6,0,21.6-29,10.1-33.7-4.7c0,0,6.7-9.4,4.7-16.9a94,94,0,0,1-3.4-22.9V583.8l-31-116.1-7.4-41.8s2-42.5,9.4-46.6S689.5,376.7,689.5,376.7Z"/><circle class="cls-13" cx="664.6" cy="155.4" r="27"/><path class="cls-13" d="M683.5,167.3l-.5,34.5-33.1.1s8.4-27,4.6-32.6S683.5,167.3,683.5,167.3Z"/><path class="cls-12" d="M634.2,220.8s23.6-30.4,41.8-17.5,25,43.2,25,43.2l-4,85s-10.1,12.1-4,20.2,9.4,6.1,4.7,12.1-10.1,10.8-8.1,12.8-2,3.4-2,3.4l-71.5,2s2-2.7-4-10.8,1.3-18.9,0-22.9-2.7.7-3.4-8.8S634.2,220.8,634.2,220.8Z"/><path class="cls-13" d="M641,394.9s-1.3,16.9-11.5,19.6c-3.8,1-6.6-.9-8.7-3.7a16.43,16.43,0,0,1-.5-18.6l2.5-4Z"/><path class="cls-12" d="M703.4,186.7s.7,13.5,0,15.5-1.3,4,0,6.1.7,8.8-.7,9.4,2.7,6.7,1.3,10.8a27.1,27.1,0,0,1-3.4,6.7c-.7,1.3-1.8,3.8-1.8,3.8s-19.8-42.2-36-32.1-29,13.5-29,13.5S642.6,173.2,703.4,186.7Z"/><path class="cls-12" d="M674,218.1s21.6,2,20.2,30.4,2,72.9,2,72.9-37.1,56.7-43.2,60.7-6.7,3.4-6.1,6.7,1.3,6.1-1.3,8.8a21,21,0,0,1-5.4,4s-21.6-7.4-19.6-14.2,11.5-17.5,11.5-17.5,16.2-26.3,16.9-30.4.7-3.4,2.7-5.4,7.4-10.1,7.4-14.2V307.1l-5.7-68.5a20,20,0,0,1,5.3-15.4C662,219.9,666.8,217.3,674,218.1Z"/><path class="cls-12" d="M647.2,134.6a11.09,11.09,0,0,1-10.2-2.3,8.36,8.36,0,0,1-1.6-10c1.6-2.7,4.8-4,7.8-4.9a67.3,67.3,0,0,1,20.4-3.1c3.3,0,6.8.3,9.6,2,1.4.8,2.6,2,4,2.9,2.5,1.6,5.6,2.1,8.4,3.2a21.38,21.38,0,0,1,12.3,13,31.36,31.36,0,0,1,1.2,6.1,32.72,32.72,0,0,1-2.9,16.6c-3.8,8.2-10.9,15.1-11.9,24.1-3.9-3.2-5-8.7-8-12.7a16.09,16.09,0,0,0-9-6.1,5.14,5.14,0,0,1-2.7-1.2,5.38,5.38,0,0,1-.9-2.5l-1.9-13.3c-.4-2.7-.9-5.7-3-7.5a10.2,10.2,0,0,0-4.4-1.9,74.56,74.56,0,0,0-11.5-1.9"/><path class="cls-8" d="M693,331l-37.9,49.2S690,351,693,331Z"/><polygon class="cls-8" points="656.6 276.6 657 323 635 356 653 319 656.6 276.6"/></g></g></svg>