<svg xmlns="http://www.w3.org/2000/svg" viewBox="0 0 272.43 227.34"><defs><style>.cls-1{fill:#fff;}.cls-2{fill:#f2f2f2;}.cls-3{fill:#e6e6e6;}.cls-4{fill:#3f3d3b;}.cls-5{fill:#ffe194;}.cls-6{fill:#d11149;}.cls-7{fill:#f9b225;}.cls-8{fill:#6c63ff;}.cls-9{fill:#242728;}.cls-10{opacity:0.1;isolation:isolate;}.cls-11{fill:#05090a;}.cls-12{fill:#a0616a;}.cls-13{fill:#3f3d56;}.cls-14{fill:#2f2e41;}</style></defs><title>icono_encuentra</title><g id="Capa_2" data-name="Capa 2"><g id="Capa_1-2" data-name="Capa 1"><rect class="cls-1" x="243.06" y="1.73" width="8.19" height="1.02"/><rect class="cls-1" x="243.06" y="4.8" width="8.19" height="1.02"/><rect class="cls-1" x="243.06" y="7.87" width="8.19" height="1.02"/><ellipse class="cls-2" cx="214.71" cy="216.75" rx="51.2" ry="10.58"/><path class="cls-3" d="M15.67,132.1c.3.72.61,1.43,1,2.15l-.71.34c-.34-.71-.65-1.43-1-2.15Z"/><path class="cls-3" d="M142.38,75.23c.44,1,.88,1.91,1.26,2.9l-.72.31c-.61-1.43-1.26-2.9-2-4.3l.72-.34C141.9,74.24,142.14,74.72,142.38,75.23Zm-3-5.66-.69.41c-.78-1.37-1.64-2.7-2.52-4l.65-.44C137.73,66.8,138.59,68.17,139.41,69.57Zm5.94,13c.51,1.5,1,3,1.36,4.57l-.75.2c-.41-1.5-.85-3-1.37-4.54ZM134,61.65l-.61.47c-1-1.22-2-2.45-3-3.61l.58-.52q1.59,1.75,3.07,3.66Zm13.76,30.21c.31,1.57.54,3.14.75,4.74l-.79.1c-.2-1.57-.44-3.14-.71-4.67ZM127.6,54.55l-.55.58C125.92,54,124.73,53,123.53,52l.52-.61C125.24,52.36,126.43,53.45,127.6,54.55Zm21.33,46.8c.07,1.6.1,3.2.07,4.77h-.79c0-1.57,0-3.17-.07-4.74ZM120.26,48.4l-.48.65c-1.26-.92-2.6-1.81-3.93-2.66l.41-.65Q118.32,47,120.26,48.4Zm28.5,62.54c-.14,1.57-.34,3.17-.58,4.74l-.79-.13c.24-1.54.45-3.14.58-4.71ZM112.13,43.35l-.37.68c-1.4-.75-2.8-1.43-4.24-2.08l.31-.72C109.3,41.88,110.73,42.6,112.13,43.35Zm35.13,77c-.34,1.54-.75,3.11-1.23,4.65l-.75-.24c.44-1.51.85-3,1.19-4.58Zm-43.83-81-.28.75c-1.46-.54-3-1.06-4.5-1.5l.24-.75C100.39,38.33,101.93,38.85,103.43,39.39Zm41.06,90.15c-.54,1.5-1.19,3-1.84,4.4l-.72-.34c.65-1.43,1.26-2.9,1.81-4.37ZM94.25,36.69l-.18.76c-1.53-.35-3.1-.65-4.64-.86l.11-.78C91.11,36.05,92.71,36.35,94.25,36.69Zm46.28,101.56c-.75,1.39-1.57,2.79-2.42,4.13l-.65-.41c.85-1.34,1.64-2.7,2.39-4.1Zm-55.74-103-.07.79c-1.57-.14-3.17-.21-4.74-.24V35c1.6,0,3.21.1,4.81.24Zm50.62,111.07c-.95,1.27-1.94,2.53-3,3.76l-.61-.51c1-1.2,2-2.46,2.93-3.72ZM75.2,35.16l0,.78c-1.57.11-3.17.24-4.71.45l-.1-.79A44.44,44.44,0,0,1,75.2,35.16Zm54,118.48c-1.09,1.13-2.28,2.25-3.44,3.31l-.52-.58c1.16-1.06,2.33-2.15,3.42-3.28ZM65.71,36.35l.14.79c-1.54.31-3.11.65-4.61,1.06L61,37.45C62.57,37,64.14,36.66,65.71,36.35ZM122.1,160c-1.26,1-2.56,1.91-3.89,2.8l-.45-.65c1.3-.88,2.6-1.81,3.83-2.76ZM56.46,38.85l.24.75c-1.47.51-3,1.09-4.41,1.7l-.3-.71C53.45,39.94,55,39.36,56.46,38.85Zm57.69,126.5c-1.37.78-2.8,1.53-4.24,2.25l-.34-.72c1.4-.68,2.84-1.43,4.17-2.21ZM48,43.25c-1.4.72-2.8,1.47-4.16,2.29l-.41-.69c1.36-.82,2.76-1.57,4.2-2.28ZM39.87,48.1c-1.3.88-2.56,1.84-3.79,2.83l-.48-.62c1.23-1,2.53-1.94,3.86-2.86ZM32.46,54c-1.16,1.05-2.29,2.18-3.38,3.31l-.58-.55c1.09-1.16,2.26-2.29,3.42-3.34Zm-6.52,6.86C25,62,24,63.29,23,64.58l-.65-.44c.92-1.3,1.91-2.56,2.94-3.79Zm-5.49,7.68c-.82,1.33-1.61,2.73-2.36,4.09l-.68-.37c.75-1.4,1.53-2.8,2.39-4.17ZM16,76.87c-.65,1.43-1.23,2.9-1.78,4.4L13.48,81c.55-1.5,1.16-3,1.78-4.44Zm-3.24,8.88c-.45,1.5-.82,3.07-1.16,4.6l-.76-.17c.35-1.53.72-3.1,1.17-4.64Zm-2,9.25c-.24,1.57-.41,3.14-.52,4.71l-.78-.07c.14-1.57.31-3.18.51-4.75Zm-.72,9.45c0,1.57,0,3.18.14,4.75l-.79,0c-.1-1.57-.14-3.21-.14-4.78Zm.58,9.46c.2,1.57.48,3.14.79,4.67l-.79.17c-.31-1.57-.58-3.14-.79-4.71Zm1.88,9.28c.41,1.5.88,3,1.4,4.51l-.75.27c-.52-1.5-1-3-1.44-4.57Z"/><path class="cls-3" d="M105.17,168.9l.31.71c-.72.31-1.47.59-2.22.86l-.28-.75C103.7,169.48,104.42,169.17,105.17,168.9Z"/><path class="cls-4" d="M146.35,135.86c-.07-.14-1.91-3.21-2.56-9.63-.58-5.87-.2-15.77,4.92-29.59a59.76,59.76,0,0,0-2.36-47.49l.58-.34a52.75,52.75,0,0,1,4.95,14,61,61,0,0,1-2.52,34.06c-9.73,26.12-2.5,38.51-2.43,38.61Z"/><circle class="cls-5" cx="142.56" cy="43.18" r="4.44"/><circle class="cls-6" cx="156.56" cy="59.56" r="4.44"/><circle class="cls-7" cx="147" cy="70.49" r="4.44"/><circle class="cls-5" cx="158.61" cy="79.7" r="4.44"/><circle class="cls-6" cx="143.59" cy="94.04" r="4.44"/><path class="cls-4" d="M149.05,136s-4.44-10.93,8.87-19.12Z"/><path class="cls-4" d="M143.59,135.82s-2-11.6-17.65-11.5Z"/><circle class="cls-1" cx="79.77" cy="67.62" r="3.96"/><circle class="cls-1" cx="99.78" cy="67.62" r="3.96"/><circle class="cls-8" cx="85.34" cy="73.22" r="0.75"/><circle class="cls-8" cx="93.09" cy="73.22" r="0.75"/><path class="cls-4" d="M114.61,54a.66.66,0,0,0-.82.51.67.67,0,0,0,.34.75,20.27,20.27,0,0,1,6,5.12c7.65,9.73,5,24.58-6,33.21A27,27,0,0,1,97,99.57c7.34,2.08,16,.44,23-5,11-8.64,13.62-23.49,6-33.21A20.12,20.12,0,0,0,114.61,54Z"/><path class="cls-9" d="M120.11,60.52c7.64,9.73,5,24.58-6,33.21a27.26,27.26,0,0,1-13.92,5.77,26.82,26.82,0,0,0,16.72-5.94c11-8.63,13.62-23.48,6-33.21a20.36,20.36,0,0,0-8.27-6.21h0a.69.69,0,0,0-.82.51.67.67,0,0,0,.34.75A20.16,20.16,0,0,1,120.11,60.52Z"/><polygon class="cls-9" points="86.18 45.54 90.68 53.35 95.22 61.17 86.18 61.17 77.13 61.17 81.67 53.35 86.18 45.54"/><polygon class="cls-9" points="102.66 45.54 107.17 53.35 111.67 61.17 102.66 61.17 93.62 61.17 98.12 53.35 102.66 45.54"/><polygon class="cls-4" points="85.66 49.63 88.43 54.45 91.23 59.26 85.66 59.26 80.07 59.26 82.86 54.45 85.66 49.63"/><polygon class="cls-4" points="102.59 49.63 105.36 54.45 108.16 59.26 102.59 59.26 97.03 59.26 99.8 54.45 102.59 49.63"/><path class="cls-4" d="M121.4,101.21c0,17.54-12.46,31.78-27.85,31.78S65.7,118.75,65.7,101.21,78.15,69.43,93.55,69.43a25.82,25.82,0,0,1,17.89,7.44A33.65,33.65,0,0,1,121.4,101.21Z"/><path class="cls-10" d="M113.07,77.38c-2.45,6.93-9.95,12-18.83,12s-16.38-5-18.84-12A27.6,27.6,0,0,1,113.07,77.38Z"/><ellipse class="cls-4" cx="94.4" cy="69.43" rx="21.33" ry="16.93"/><circle class="cls-11" cx="84.4" cy="67.07" r="2.49"/><circle class="cls-11" cx="104.4" cy="67.07" r="2.49"/><path class="cls-9" d="M89.11,72.47c-2.39.65-4,2-6.45,2.56a19.53,19.53,0,0,1-8,.1c-.45-.1-.65.34-.21.41a20.9,20.9,0,0,0,8,0,15.45,15.45,0,0,0,3.41-1.09,26,26,0,0,1,3.58-1.61c.45-.1.11-.47-.34-.37Z"/><path class="cls-9" d="M90.07,72.3a21.6,21.6,0,0,0-3.48.78,16.57,16.57,0,0,1-4,.68,17.93,17.93,0,0,1-7.51-1.16c-.41-.17-.75.24-.38.38a18.6,18.6,0,0,0,7.51,1.23,19.93,19.93,0,0,0,3.76-.48,33.42,33.42,0,0,1,4.33-1C90.72,72.67,90.51,72.23,90.07,72.3Z"/><path class="cls-9" d="M89.42,72c-1.84,1.06-2.63,2.59-4.61,3.62a17.48,17.48,0,0,1-7.61,1.74c-.21,0-.38.1-.34.24s.17.2.34.2a18.12,18.12,0,0,0,7.47-1.53,11.48,11.48,0,0,0,2.53-1.57,17.84,17.84,0,0,1,2.7-2.36c.37-.2-.14-.51-.48-.34Z"/><path class="cls-9" d="M98.23,72.84A24.16,24.16,0,0,1,102,74.41a17.87,17.87,0,0,0,3.58,1.13,21.23,21.23,0,0,0,8.33,0c.48-.1.27-.51-.21-.41a21.22,21.22,0,0,1-8.29-.1c-2.63-.58-4.27-1.91-6.76-2.56-.44-.1-.82.27-.37.37Z"/><path class="cls-9" d="M97.41,72.71a33.42,33.42,0,0,1,4.33,1,23.65,23.65,0,0,0,4.13.54A20.08,20.08,0,0,0,113.72,73c.41-.17,0-.54-.37-.37a19.66,19.66,0,0,1-7.89,1.16,20.93,20.93,0,0,1-4.2-.68,20.57,20.57,0,0,0-3.65-.79c-.48-.1-.68.34-.2.38Z"/><path class="cls-9" d="M97.75,72.3a17.66,17.66,0,0,1,2.83,2.35,10.92,10.92,0,0,0,2.66,1.57,19.76,19.76,0,0,0,7.82,1.54c.21,0,.38-.1.38-.24s-.17-.21-.38-.21a17.76,17.76,0,0,1-8-1.74c-2-1-2.87-2.56-4.82-3.61-.37-.14-.88.17-.54.34Z"/><ellipse class="cls-9" cx="84.4" cy="131.79" rx="5.87" ry="3.38"/><ellipse class="cls-9" cx="104.4" cy="131.79" rx="5.87" ry="3.38"/><ellipse class="cls-9" cx="93.82" cy="72.5" rx="4.85" ry="2.8"/><path class="cls-2" d="M0,0V189.79H272.43V0ZM35.11,2.39a4.26,4.26,0,0,1,4.38,4.1,4.4,4.4,0,0,1-8.77,0A4.26,4.26,0,0,1,35.11,2.39ZM8.78,10.58A4.26,4.26,0,0,1,4.39,6.49a4.26,4.26,0,0,1,4.39-4.1,4.26,4.26,0,0,1,4.38,4.1A4.25,4.25,0,0,1,8.78,10.58Zm8.77-4.09a4.26,4.26,0,0,1,4.39-4.1,4.26,4.26,0,0,1,4.39,4.1,4.26,4.26,0,0,1-4.39,4.09A4.26,4.26,0,0,1,17.55,6.49Zm151,130H21.94V34.82H168.58Z"/><rect class="cls-1" x="191.62" y="32.09" width="66.19" height="3.07"/><rect class="cls-1" x="191.62" y="42.67" width="66.19" height="3.07"/><rect class="cls-1" x="191.62" y="53.25" width="66.19" height="3.07"/><rect class="cls-1" x="191.62" y="63.83" width="66.19" height="3.07"/><rect class="cls-1" x="191.62" y="74.41" width="66.19" height="3.07"/><rect class="cls-1" x="191.62" y="85" width="66.19" height="3.07"/><rect class="cls-1" x="191.62" y="95.58" width="66.19" height="3.07"/><rect class="cls-1" x="191.62" y="106.16" width="66.19" height="3.07"/><rect class="cls-1" x="191.62" y="116.74" width="66.19" height="3.07"/><rect class="cls-1" x="191.62" y="127.32" width="66.19" height="3.07"/><rect class="cls-7" x="191.62" y="162.82" width="66.19" height="17.41"/><path class="cls-12" d="M200.62,135.6a3.19,3.19,0,0,1-5.39-3.32l1.84-18.82,4.27,1.54-1.67,15.83a3.07,3.07,0,0,1,.42.28,3.2,3.2,0,0,1,.53,4.49Z"/><path class="cls-13" d="M202.9,77.57l4.48,19.37-6.06,26.48-5.71-.71s.52-8.21.88-8.64-.07-.78-1.05-2.68.88-2.46,0-3.56,1-12.28.48-13.81,0-5.13.06-9.1,6.94-7.35,6.94-7.35Z"/><path class="cls-12" d="M235.83,137.21a3.19,3.19,0,0,0,4.8-4.13l-4.79-18.29-4,2.19L236,132.35a3.07,3.07,0,0,0-.38.34,3.2,3.2,0,0,0,.19,4.52Z"/><path class="cls-13" d="M223.05,100.09l10.17,25.2,5.52-1.6s-1.81-8-2.23-8.39,0-.79.61-2.81-1.25-2.29-.54-3.53-2.94-12-2.65-13.56-.84-5.06-1.49-9-8-6.16-8-6.16Z"/><polygon class="cls-12" points="196.12 187 188.87 187 191.21 205.96 196.12 205.96 196.12 187"/><path class="cls-14" d="M181.29,213.21a2.09,2.09,0,0,0,2.07,2.09h9.26l.28-.6,1.31-2.7.51,2.7.11.6h3.49l0-.6-.93-11.16-1.21-.08-5.27-.31-1.29-.08v3.33C188.59,207.45,180.9,211.39,181.29,213.21Z"/><polygon class="cls-12" points="244.35 184.12 238.04 187.7 249.44 203.04 253.71 200.61 244.35 184.12"/><path class="cls-14" d="M244.39,214.24a2.08,2.08,0,0,0,2.83.79l.49-.28h0l7.56-4.29-.24-3.65,2.17,2.56,1.6-.91,1.43-.82L259,205.79l-5.39-7.89-1.09.54-4.74,2.32-1.15.57,1.64,2.9C247.89,205.62,243.15,212.84,244.39,214.24Z"/><path class="cls-6" d="M220.52,112.89l-18.78-1.7c-5.31,14.32-11.72,51.36-14.29,86.49l9.88.7,14.29-3.45-3.23-29.47,2.42-18.56,14.53,50.45,22.1-9.91-15.53-28.93c3.33-.81-.5-45.23-11.39-45.62Z"/><path class="cls-13" d="M223.76,109.44l1.49-6.23,3.5-20.82c-.47-.51-.95-1-1.4-1.38l-2.21-.79-2.85-1-4.77-5.27-7.12-.24-5,3.7H205a6.42,6.42,0,0,0-6.47,6.38l3.33,27.4c-1.34,1.51-2.33,3.06-1.12,4.64l5.56,1.17c7.61,2.34,12.37,3.17,19.33-.7l-.07-.27C226.86,113.93,225.76,111.71,223.76,109.44Z"/><path id="b-117" class="cls-14" d="M203.83,69c3.67,3.32,11,4,18.23,4.74a1.48,1.48,0,0,0,1.53-.52,1.5,1.5,0,0,0,.26-.52s2.4,2,2.07-7.86S224,53.14,218.19,51.62a10.78,10.78,0,0,0-4.34-.23,11,11,0,0,0-7.08,4.14,10.87,10.87,0,0,0-1.91,3.87l-2.07,7.84a1.46,1.46,0,0,0,1,1.78Z"/><path id="c-118" class="cls-12" d="M220.84,60.75a7.92,7.92,0,0,0-3.63-4.9,8,8,0,0,0-11.87,8.78A7.91,7.91,0,0,0,209,69.52a8,8,0,0,0,11.88-8.77Z"/><path id="d-119" class="cls-14" d="M202.17,59.54c4.11,2.9,7.88,4.15,11.13,2.89l.54-1.57.15,1.75,1.72.44,1.06-3.1.3,3.46,3.32.86,0-.16h0a8.55,8.55,0,0,0-6.08-10.46h-.06l-1.57-.41a8.52,8.52,0,0,0-3.41-.18c-3-1.23-4.6.79-5.6,3.27a8.54,8.54,0,0,0-1.5,3.07Z"/><path id="e-120" class="cls-14" d="M210.06,70a27.9,27.9,0,0,0,2-2.47,18.53,18.53,0,0,0,1.84-3.09,10.66,10.66,0,0,0,1-3.41,6.37,6.37,0,0,0-.6-3.41l-.15-.32,9,2.33-3.56,13.48L214,72.67l.84-3.18-2.54,3L211,72.44h-.2l-.06,0a1.41,1.41,0,0,1-.82-.57,1.17,1.17,0,0,1-.17-.31,1.3,1.3,0,0,1-.09-.39,1.4,1.4,0,0,1,.14-.78A1.5,1.5,0,0,1,210.06,70Z"/></g></g></svg>